<?xml version="1.0" encoding="UTF-8"?>
<svg version="1.1" xmlns="http://www.w3.org/2000/svg" width="500" height="202">
<path d="M0 0 C3.91889378 1.54837412 7.42872187 3.78778405 11 6 C11.81388184 6.49886719 12.62776367 6.99773438 13.46630859 7.51171875 C18.88696958 10.8355902 24.29018402 14.18635728 29.67919922 17.5612793 C32.10526586 19.06525686 34.54905906 20.53697429 37 22 C37 18.37 37 14.74 37 11 C42.94 11 48.88 11 55 11 C54.70802734 13.24683594 54.70802734 13.24683594 54.41015625 15.5390625 C53.9240409 21.90150132 53.59039105 27.98509726 56 34 C61.53292728 39.97096088 69.12549507 43.19953327 76.36083984 46.66894531 C79.91026317 48.45908925 82.36864984 49.99941953 85 53 C84.67 54.98 84.34 56.96 84 59 C190.92 59 297.84 59 408 59 C408 39.53 408 20.06 408 0 C408.33 0 408.66 0 409 0 C409 60.72 409 121.44 409 184 C408.67 184 408.34 184 408 184 C408 179.38 408 174.76 408 170 C248.94 170 89.88 170 -74 170 C-74 134.03 -74 98.06 -74 61 C-78.29 61 -82.58 61 -87 61 C-91 57 -91 57 -91.19140625 54.5546875 C-89.42439224 50.76574597 -86.40564317 49.20084591 -82.9375 47.125 C-82.19306641 46.66158203 -81.44863281 46.19816406 -80.68164062 45.72070312 C-79.0299498 44.69426651 -77.37393026 43.67477289 -75.71435547 42.66113281 C-71.82095083 40.27844482 -67.95472985 37.85289711 -64.08569336 35.4309082 C-62.01610398 34.13583879 -59.94528692 32.84272936 -57.87329102 31.55151367 C-51.34249126 27.4804262 -44.85400981 23.35249041 -38.40405273 19.15478516 C-32.31279822 15.19262058 -26.1913895 11.27866618 -20.0625 7.375 C-19.09554199 6.75810303 -18.12858398 6.14120605 -17.13232422 5.50561523 C-16.23400879 4.93399658 -15.33569336 4.36237793 -14.41015625 3.7734375 C-13.60715088 3.26216309 -12.80414551 2.75088867 -11.97680664 2.22412109 C-7.97977696 -0.25100634 -4.63715423 -0.75238595 0 0 Z M-39 52 C-39.15855469 52.70382813 -39.31710938 53.40765625 -39.48046875 54.1328125 C-40.86231518 59.98084767 -42.52252775 65.51575373 -44.6875 71.125 C-46.85032832 76.95298052 -47.64033661 81.82430914 -47 88 C-47.99 88.495 -47.99 88.495 -49 89 C-48.96900417 80.08869868 -47.28140315 72.95484403 -43.99560547 64.73852539 C-42.53735846 61.01000334 -41.7619922 58.82307346 -43 55 C-43.66 55 -44.32 55 -45 55 C-45.26554687 55.88042969 -45.53109375 56.76085938 -45.8046875 57.66796875 C-46.15789063 58.82941406 -46.51109375 59.99085937 -46.875 61.1875 C-47.22304688 62.33605469 -47.57109375 63.48460937 -47.9296875 64.66796875 C-49 68 -49 68 -50.02612305 70.39794922 C-53.30691727 79.16373133 -53.09547074 91.56021753 -49.76367188 100.20947266 C-46.05413505 107.63202836 -41.49861607 114.65661444 -36.29223633 121.12011719 C-35 123 -35 123 -35.1875 125.4375 C-36.0003903 128.00123094 -37.0011381 130.50284525 -38 133 C-31.73 133 -25.46 133 -19 133 C-18.34 131.35 -17.68 129.7 -17 128 C-15.9790625 127.01 -15.9790625 127.01 -14.9375 126 C-12.59097845 123.57778421 -12.31639795 122.32461232 -12 119 C-13.77360066 113.50368545 -17.15534664 108.6575765 -20.5 104 C-27.82787555 93.63491287 -30.13073252 86.69973025 -28 74 C-27.35581326 71.99264655 -26.69291136 69.99105959 -26 68 C-25.66551741 64.832168 -25.66551741 64.832168 -26 62 C-26.66 61.34 -27.32 60.68 -28 60 C-30.69061136 65.95369322 -32.67779373 71.99935118 -34.3125 78.3125 C-34.49586914 78.99376953 -34.67923828 79.67503906 -34.86816406 80.37695312 C-35.83353026 84.24984236 -36.15295577 87.15433462 -35 91 C-35.66 91 -36.32 91 -37 91 C-37.34454276 83.91533944 -36.22819456 78.38713905 -34 71.6875 C-33.43255999 69.94300538 -32.86986565 68.19695819 -32.3125 66.44921875 C-32.06113281 65.68955811 -31.80976562 64.92989746 -31.55078125 64.1472168 C-30.83435637 61.7236948 -30.83435637 61.7236948 -31 58 C-30.34 58 -29.68 58 -29 58 C-29.26676204 56.01508358 -29.26676204 56.01508358 -30 54 C-30.99 53.67 -31.98 53.34 -33 53 C-33.23783203 54.09054688 -33.23783203 54.09054688 -33.48046875 55.203125 C-35.04679742 61.95304967 -37.132897 68.15779225 -39.9140625 74.50390625 C-41.34955238 77.80346752 -42.13854842 80.42321597 -42.125 84 C-42.12757812 84.680625 -42.13015625 85.36125 -42.1328125 86.0625 C-42.06631126 88.21874781 -42.06631126 88.21874781 -41 91 C-41.99 91 -42.98 91 -44 91 C-43.34436367 81.05841233 -41.58365871 72.72494369 -37.30053711 63.67407227 C-35.47002888 59.71027573 -34.51830672 57.21586761 -36 53 C-36.99 52.67 -37.98 52.34 -39 52 Z M29 53 C28.34 53.66 27.68 54.32 27 55 C27 55.99 27 56.98 27 58 C27.66 58 28.32 58 29 58 C29.14695312 58.85658203 29.14695312 58.85658203 29.296875 59.73046875 C30.23342941 64.8088543 31.485866 69.6000356 33.125 74.5 C34.93795697 80.16045455 35.48011058 85.09197264 35 91 C34.505 90.505 34.505 90.505 34 90 C34.03996094 89.03707031 34.07992187 88.07414062 34.12109375 87.08203125 C34.19229858 82.01354216 32.58384921 77.47435392 31.0625 72.6875 C30.64581055 71.32915039 30.64581055 71.32915039 30.22070312 69.94335938 C28.85409627 65.37603607 28.85409627 65.37603607 27 61 C26.01 61.33 25.02 61.66 24 62 C24.11617644 63.37577361 24.24345777 64.75061045 24.375 66.125 C24.44460937 66.89070313 24.51421875 67.65640625 24.5859375 68.4453125 C24.93979424 71.09930078 24.93979424 71.09930078 26.015625 73.90625 C27.06608771 77.20770423 27.33314284 79.91759888 27.375 83.375 C27.40335938 84.43460938 27.43171875 85.49421875 27.4609375 86.5859375 C26.47682478 93.87504361 21.97056369 99.8071791 17.875 105.75 C12.0350003 113.61216651 12.0350003 113.61216651 11 123 C12.14150729 124.92988643 13.40115544 126.64245759 14.80859375 128.38671875 C16 130 16 130 17 133 C23.6 133 30.2 133 37 133 C35.68 130.03 34.36 127.06 33 124 C34.46848825 120.38022324 35.72151125 118.02815098 37.9375 114.9375 C38.43830078 114.18662109 38.93910156 113.43574219 39.45507812 112.66210938 C40.45693722 111.1625609 41.47040073 109.67069717 42.49560547 108.18701172 C43.97090453 106.04229751 45.40975353 103.88172928 46.81640625 101.69140625 C47.2141626 101.07595947 47.61191895 100.4605127 48.02172852 99.82641602 C52.5013878 91.46296927 51.00399016 78.86398016 48.4375 70.14453125 C46.78332953 65.03775084 44.95604268 59.99861058 43 55 C42.34 55 41.68 55 41 55 C39.60486316 59.18541052 41.32014715 61.90033137 42.875 65.8125 C45.84604603 73.65346334 46.97327709 80.56892231 47 89 C46.34 89 45.68 89 45 89 C45.08701172 87.94425781 45.08701172 87.94425781 45.17578125 86.8671875 C45.52473256 79.23013894 44.08616703 73.4511373 41.3125 66.359375 C39.60136877 61.97969388 38.28113622 57.52043187 37 53 C36.01 53.33 35.02 53.66 34 54 C34.26831195 59.45567642 35.0295581 63.45288347 37.4375 68.375 C40.92544178 75.56257946 42.43275821 82.99397315 42 91 C41.34 91 40.68 91 40 91 C40.0928125 90.37738281 40.185625 89.75476563 40.28125 89.11328125 C41.10394792 78.5798097 36.89269629 69.83366083 32.84790039 60.30493164 C31.9582221 57.88643099 31.44139176 55.53541032 31 53 C30.34 53 29.68 53 29 53 Z M-4.7724762 61.63352966 C-5.29228561 62.15536331 -5.81209503 62.67719696 -6.34765625 63.21484375 C-6.87894638 63.74517715 -7.41023651 64.27551056 -7.95762634 64.82191467 C-9.08276418 65.94637054 -10.20663428 67.07209609 -11.3293457 68.19897461 C-13.05504691 69.93002381 -14.78600336 71.65568781 -16.51757812 73.38085938 C-17.60709163 74.47103366 -18.69629491 75.56151809 -19.78515625 76.65234375 C-20.56790672 77.43205788 -20.56790672 77.43205788 -21.36647034 78.2275238 C-23.88147591 80.26711096 -23.88147591 80.26711096 -25 83 C-22.36 83 -19.72 83 -17 83 C-17 87.95 -17 92.9 -17 98 C-14.36 97.01 -11.72 96.02 -9 95 C-8.896875 93.80375 -8.79375 92.6075 -8.6875 91.375 C-8.333488 88.43516123 -7.92558518 86.86047221 -6.5 84.1875 C-4.33887957 79.59511908 -4.25905789 75.02036328 -4 70 C-3.34 70 -2.68 70 -2 70 C-1.87625 70.72703125 -1.7525 71.4540625 -1.625 72.203125 C-1.0147577 74.93395931 -0.13366555 77.1992525 1 79.75 C2.99869866 84.57294677 3.66481515 88.80463481 4 94 C4.62648438 94.20496094 5.25296875 94.40992188 5.8984375 94.62109375 C6.71570313 94.89050781 7.53296875 95.15992188 8.375 95.4375 C9.18710938 95.70433594 9.99921875 95.97117188 10.8359375 96.24609375 C13 97 13 97 15 98 C15 93.05 15 88.1 15 83 C17.97 83 20.94 83 24 83 C21.33894953 79.59052909 18.69235818 76.65311683 15.375 73.875 C11.06245296 70.22211599 7.3432944 66.12526699 3.59326172 61.91162109 C2.41306437 60.59183503 1.20873142 59.29370375 0 58 C-2.09900652 58 -3.36677157 60.23704818 -4.7724762 61.63352966 Z M-2 80 C-5.75684097 86.3115387 -5.75684097 86.3115387 -7 93.375 C-5.98511064 96.03908456 -4.73279666 97.76180431 -3 100 C-2.3125 102.75 -2.3125 102.75 -2 105 C-9.89031079 105.15173675 -9.89031079 105.15173675 -13 104 C-13.66 103.34 -14.32 102.68 -15 102 C-14.54625711 106.87773605 -13.47822112 109.52177888 -10 113 C-5.57331558 115.85275218 -2.23420071 116.64279658 3 116 C7.31121237 114.47839563 10.09697028 112.33519768 12.5 108.4375 C14.40845904 105.10995074 14.40845904 105.10995074 13 102 C13 102.66 13 103.32 13 104 C11.20909747 104.19466332 9.41723495 104.38051213 7.625 104.5625 C6.62726563 104.66691406 5.62953125 104.77132812 4.6015625 104.87890625 C2 105 2 105 0 104 C0.14295891 102.60386935 0.28951558 101.20810692 0.4375 99.8125 C0.51871094 99.03519531 0.59992188 98.25789063 0.68359375 97.45703125 C1 95 1 95 1.625 92.53125 C2.07622569 89.48547658 1.53109373 87.5932812 0.5625 84.6875 C0.27503906 83.80449219 -0.01242188 82.92148438 -0.30859375 82.01171875 C-0.53675781 81.34785156 -0.76492187 80.68398437 -1 80 C-1.33 80 -1.66 80 -2 80 Z M15 137 C15.66 137.66 16.32 138.32 17 139 C17 138.34 17 137.68 17 137 C16.34 137 15.68 137 15 137 Z M14 138 C14 141 14 141 14 141 Z M14 141 C14.01160156 141.62648437 14.02320312 142.25296875 14.03515625 142.8984375 C14.04417969 143.71570313 14.05320312 144.53296875 14.0625 145.375 C14.07410156 146.18710938 14.08570312 146.99921875 14.09765625 147.8359375 C14 150 14 150 13 152 C13.66 152 14.32 152 15 152 C15.33 152.99 15.66 153.98 16 155 C16 151.37 16 147.74 16 144 C17.32 144.33 18.64 144.66 20 145 C20 145.66 20 146.32 20 147 C19.01 147.495 19.01 147.495 18 148 C19.07401108 150.91517292 19.77810176 152.77810176 22 155 C21.814375 154.113125 21.62875 153.22625 21.4375 152.3125 C21.01957516 149.14821189 21.19222258 147.05160358 22 144 C22.99 144 23.98 144 25 144 C25 145.65 25 147.3 25 149 C24.01 149.495 24.01 149.495 23 150 C23.66 150 24.32 150 25 150 C25 151.65 25 153.3 25 155 C25.33 155 25.66 155 26 155 C26 151.37 26 147.74 26 144 C26.66 143.67 27.32 143.34 28 143 C23.71 143 19.42 143 15 143 C14.67 142.34 14.34 141.68 14 141 Z M-56 143 C-55.01 143.33 -54.02 143.66 -53 144 C-53 145.32 -53 146.64 -53 148 C-53.99 148 -54.98 148 -56 148 C-56 148.66 -56 149.32 -56 150 C-55.34 150 -54.68 150 -54 150 C-53.67 151.65 -53.34 153.3 -53 155 C-52.11064623 151.696686 -51.53725895 148.37705625 -51 145 C-47.535 144.505 -47.535 144.505 -44 144 C-44.33 146.31 -44.66 148.62 -45 151 C-45.66 151 -46.32 151 -47 151 C-46.67 149.35 -46.34 147.7 -46 146 C-47.98 146.99 -47.98 146.99 -50 148 C-49.34 149.65 -48.68 151.3 -48 153 C-46.68 153 -45.36 153 -44 153 C-43.67 153.66 -43.34 154.32 -43 155 C-43 151.37 -43 147.74 -43 144 C-40.69 144 -38.38 144 -36 144 C-36 144.66 -36 145.32 -36 146 C-37.65 146.33 -39.3 146.66 -41 147 C-41 148.65 -41 150.3 -41 152 C-39.10820797 152.6814823 -39.10820797 152.6814823 -37 153 C-34.58878141 151.04366025 -34.58878141 151.04366025 -34.875 147.375 C-34.91625 146.26125 -34.9575 145.1475 -35 144 C-34.01 144 -33.02 144 -32 144 C-32 147.63 -32 151.26 -32 155 C-31.67 155 -31.34 155 -31 155 C-31 151.37 -31 147.74 -31 144 C-30.34 143.67 -29.68 143.34 -29 143 C-37.91 143 -46.82 143 -56 143 Z M-25 143 C-25 143.66 -25 144.32 -25 145 C-26.32 145 -27.64 145 -29 145 C-29 146.98 -29 148.96 -29 151 C-27.68 151 -26.36 151 -25 151 C-24.34 151.66 -23.68 152.32 -23 153 C-23.33 151.35 -23.66 149.7 -24 148 C-25.32 148 -26.64 148 -28 148 C-28 147.34 -28 146.68 -28 146 C-26.68 146 -25.36 146 -24 146 C-24 145.34 -24 144.68 -24 144 C-23.34 144 -22.68 144 -22 144 C-22 145.98 -22 147.96 -22 150 C-21.67 150 -21.34 150 -21 150 C-21 148.02 -21 146.04 -21 144 C-19.02 144 -17.04 144 -15 144 C-15 144.66 -15 145.32 -15 146 C-16.32 146.33 -17.64 146.66 -19 147 C-18.67 148.65 -18.34 150.3 -18 152 C-17.21625 152.12375 -16.4325 152.2475 -15.625 152.375 C-13 153 -13 153 -11 155 C-10.67 151.04 -10.34 147.08 -10 143 C-14.95 143 -19.9 143 -25 143 Z M-2 143 C-2.33 143.66 -2.66 144.32 -3 145 C-2.34 145 -1.68 145 -1 145 C-1.33 144.34 -1.66 143.68 -2 143 Z M1 143 C0.67 144.65 0.34 146.3 0 148 C0.66 148 1.32 148 2 148 C2 149.65 2 151.3 2 153 C2.33 152.01 2.66 151.02 3 150 C3.66 150 4.32 150 5 150 C5 151.65 5 153.3 5 155 C5.33 155 5.66 155 6 155 C6.33 151.04 6.66 147.08 7 143 C6.01 143.33 5.02 143.66 4 144 C4.33 145.65 4.66 147.3 5 149 C4.34 149 3.68 149 3 149 C2.67 147.02 2.34 145.04 2 143 C1.67 143 1.34 143 1 143 Z M12 143 C13 146 13 146 13 146 Z M29.5 144.25 C27.65196131 146.40604514 27.56652118 147.38944793 27.75 150.1875 C27.8325 151.445625 27.915 152.70375 28 154 C29.98 154.99 29.98 154.99 32 156 C32 155.34 32 154.68 32 154 C31.34 153.67 30.68 153.34 30 153 C30 151.68 30 150.36 30 149 C31.32 149.66 32.64 150.32 34 151 C33.67 150.01 33.34 149.02 33 148 C32.01 148 31.02 148 30 148 C30 147.34 30 146.68 30 146 C31.32 146 32.64 146 34 146 C34 145.34 34 144.68 34 144 C34.66 144 35.32 144 36 144 C36 147.63 36 151.26 36 155 C36.33 155 36.66 155 37 155 C37 151.37 37 147.74 37 144 C38.98 144 40.96 144 43 144 C43 144.66 43 145.32 43 146 C41.68 146.33 40.36 146.66 39 147 C39.33 148.65 39.66 150.3 40 152 C40.78375 152.12375 41.5675 152.2475 42.375 152.375 C45 153 45 153 47 155 C47.33 151.04 47.66 147.08 48 143 C45.41603321 142.91887546 42.83462432 142.85945252 40.25 142.8125 C39.52039063 142.78736328 38.79078125 142.76222656 38.0390625 142.73632812 C34.81677437 142.69238783 32.40661017 142.79669491 29.5 144.25 Z M9 146 C9.33 146.66 9.66 147.32 10 148 C10.66 147.34 11.32 146.68 12 146 C11.01 146 10.02 146 9 146 Z M8 148 C8.66 149.65 9.32 151.3 10 153 C10.99 152.67 11.98 152.34 13 152 C11.35 150.68 9.7 149.36 8 148 Z M-4 149 C-3.67 150.65 -3.34 152.3 -3 154 C-1.02 154.495 -1.02 154.495 1 155 C0.54625 154.566875 0.0925 154.13375 -0.375 153.6875 C-2 152 -2 152 -4 149 Z M-30 151 C-29.73323796 152.98491642 -29.73323796 152.98491642 -29 155 C-28.01 155.33 -27.02 155.66 -26 156 C-26 155.34 -26 154.68 -26 154 C-26.66 154 -27.32 154 -28 154 C-28.33 153.01 -28.66 152.02 -29 151 C-29.33 151 -29.66 151 -30 151 Z M34 151 C35 153 35 153 35 153 Z M-22 153 C-21 155 -21 155 -21 155 Z M50 153 C51 155 51 155 51 155 Z M-34 155 C-34.33 156.32 -34.66 157.64 -35 159 C-34.34 157.68 -33.68 156.36 -33 155 C-33.33 155 -33.66 155 -34 155 Z " fill="#FBCA0E" transform="translate(91,0)"/>
<path d="M0 0 C3.91889378 1.54837412 7.42872187 3.78778405 11 6 C11.81388184 6.49886719 12.62776367 6.99773438 13.46630859 7.51171875 C18.88696958 10.8355902 24.29018402 14.18635728 29.67919922 17.5612793 C32.10526586 19.06525686 34.54905906 20.53697429 37 22 C37 18.37 37 14.74 37 11 C42.94 11 48.88 11 55 11 C54.70802734 13.24683594 54.70802734 13.24683594 54.41015625 15.5390625 C53.9240409 21.90150132 53.59039105 27.98509726 56 34 C61.522959 39.96020343 69.11513937 43.23152566 76.36474609 46.64550781 C79.73591274 48.37825124 82.25224913 50.40885669 85 53 C84.125 57.875 84.125 57.875 83 59 C77.72 59 72.44 59 67 59 C67 95.3 67 131.6 67 169 C20.8 169 -25.4 169 -73 169 C-73 133.03 -73 97.06 -73 60 C-78.28 60 -83.56 60 -89 60 C-91 57 -91 57 -91.06640625 54.6171875 C-89.47292895 50.70645566 -86.42272564 49.21107057 -82.9375 47.125 C-82.19306641 46.66158203 -81.44863281 46.19816406 -80.68164062 45.72070312 C-79.0299498 44.69426651 -77.37393026 43.67477289 -75.71435547 42.66113281 C-71.82095083 40.27844482 -67.95472985 37.85289711 -64.08569336 35.4309082 C-62.01610398 34.13583879 -59.94528692 32.84272936 -57.87329102 31.55151367 C-51.34249126 27.4804262 -44.85400981 23.35249041 -38.40405273 19.15478516 C-32.31279822 15.19262058 -26.1913895 11.27866618 -20.0625 7.375 C-19.09554199 6.75810303 -18.12858398 6.14120605 -17.13232422 5.50561523 C-16.23400879 4.93399658 -15.33569336 4.36237793 -14.41015625 3.7734375 C-13.60715088 3.26216309 -12.80414551 2.75088867 -11.97680664 2.22412109 C-7.97977696 -0.25100634 -4.63715423 -0.75238595 0 0 Z M-39 52 C-39.15855469 52.70382813 -39.31710938 53.40765625 -39.48046875 54.1328125 C-40.86231518 59.98084767 -42.52252775 65.51575373 -44.6875 71.125 C-46.85032832 76.95298052 -47.64033661 81.82430914 -47 88 C-47.99 88.495 -47.99 88.495 -49 89 C-48.96900417 80.08869868 -47.28140315 72.95484403 -43.99560547 64.73852539 C-42.53735846 61.01000334 -41.7619922 58.82307346 -43 55 C-43.66 55 -44.32 55 -45 55 C-45.26554687 55.88042969 -45.53109375 56.76085938 -45.8046875 57.66796875 C-46.15789063 58.82941406 -46.51109375 59.99085937 -46.875 61.1875 C-47.22304688 62.33605469 -47.57109375 63.48460937 -47.9296875 64.66796875 C-49 68 -49 68 -50.02612305 70.39794922 C-53.30691727 79.16373133 -53.09547074 91.56021753 -49.76367188 100.20947266 C-46.05413505 107.63202836 -41.49861607 114.65661444 -36.29223633 121.12011719 C-35 123 -35 123 -35.1875 125.4375 C-36.0003903 128.00123094 -37.0011381 130.50284525 -38 133 C-31.73 133 -25.46 133 -19 133 C-18.34 131.35 -17.68 129.7 -17 128 C-15.9790625 127.01 -15.9790625 127.01 -14.9375 126 C-12.59097845 123.57778421 -12.31639795 122.32461232 -12 119 C-13.77360066 113.50368545 -17.15534664 108.6575765 -20.5 104 C-27.82787555 93.63491287 -30.13073252 86.69973025 -28 74 C-27.35581326 71.99264655 -26.69291136 69.99105959 -26 68 C-25.66551741 64.832168 -25.66551741 64.832168 -26 62 C-26.66 61.34 -27.32 60.68 -28 60 C-30.69061136 65.95369322 -32.67779373 71.99935118 -34.3125 78.3125 C-34.49586914 78.99376953 -34.67923828 79.67503906 -34.86816406 80.37695312 C-35.83353026 84.24984236 -36.15295577 87.15433462 -35 91 C-35.66 91 -36.32 91 -37 91 C-37.34454276 83.91533944 -36.22819456 78.38713905 -34 71.6875 C-33.43255999 69.94300538 -32.86986565 68.19695819 -32.3125 66.44921875 C-32.06113281 65.68955811 -31.80976562 64.92989746 -31.55078125 64.1472168 C-30.83435637 61.7236948 -30.83435637 61.7236948 -31 58 C-30.34 58 -29.68 58 -29 58 C-29.26676204 56.01508358 -29.26676204 56.01508358 -30 54 C-30.99 53.67 -31.98 53.34 -33 53 C-33.23783203 54.09054688 -33.23783203 54.09054688 -33.48046875 55.203125 C-35.04679742 61.95304967 -37.132897 68.15779225 -39.9140625 74.50390625 C-41.34955238 77.80346752 -42.13854842 80.42321597 -42.125 84 C-42.12757812 84.680625 -42.13015625 85.36125 -42.1328125 86.0625 C-42.06631126 88.21874781 -42.06631126 88.21874781 -41 91 C-41.99 91 -42.98 91 -44 91 C-43.34436367 81.05841233 -41.58365871 72.72494369 -37.30053711 63.67407227 C-35.47002888 59.71027573 -34.51830672 57.21586761 -36 53 C-36.99 52.67 -37.98 52.34 -39 52 Z M29 53 C28.34 53.66 27.68 54.32 27 55 C27 55.99 27 56.98 27 58 C27.66 58 28.32 58 29 58 C29.14695312 58.85658203 29.14695312 58.85658203 29.296875 59.73046875 C30.23342941 64.8088543 31.485866 69.6000356 33.125 74.5 C34.93795697 80.16045455 35.48011058 85.09197264 35 91 C34.505 90.505 34.505 90.505 34 90 C34.03996094 89.03707031 34.07992187 88.07414062 34.12109375 87.08203125 C34.19229858 82.01354216 32.58384921 77.47435392 31.0625 72.6875 C30.64581055 71.32915039 30.64581055 71.32915039 30.22070312 69.94335938 C28.85409627 65.37603607 28.85409627 65.37603607 27 61 C26.01 61.33 25.02 61.66 24 62 C24.11617644 63.37577361 24.24345777 64.75061045 24.375 66.125 C24.44460937 66.89070313 24.51421875 67.65640625 24.5859375 68.4453125 C24.93979424 71.09930078 24.93979424 71.09930078 26.015625 73.90625 C27.06608771 77.20770423 27.33314284 79.91759888 27.375 83.375 C27.40335938 84.43460938 27.43171875 85.49421875 27.4609375 86.5859375 C26.47682478 93.87504361 21.97056369 99.8071791 17.875 105.75 C12.0350003 113.61216651 12.0350003 113.61216651 11 123 C12.14150729 124.92988643 13.40115544 126.64245759 14.80859375 128.38671875 C16 130 16 130 17 133 C23.6 133 30.2 133 37 133 C35.68 130.03 34.36 127.06 33 124 C34.46848825 120.38022324 35.72151125 118.02815098 37.9375 114.9375 C38.43830078 114.18662109 38.93910156 113.43574219 39.45507812 112.66210938 C40.45693722 111.1625609 41.47040073 109.67069717 42.49560547 108.18701172 C43.97090453 106.04229751 45.40975353 103.88172928 46.81640625 101.69140625 C47.2141626 101.07595947 47.61191895 100.4605127 48.02172852 99.82641602 C52.5013878 91.46296927 51.00399016 78.86398016 48.4375 70.14453125 C46.78332953 65.03775084 44.95604268 59.99861058 43 55 C42.34 55 41.68 55 41 55 C39.60486316 59.18541052 41.32014715 61.90033137 42.875 65.8125 C45.84604603 73.65346334 46.97327709 80.56892231 47 89 C46.34 89 45.68 89 45 89 C45.08701172 87.94425781 45.08701172 87.94425781 45.17578125 86.8671875 C45.52473256 79.23013894 44.08616703 73.4511373 41.3125 66.359375 C39.60136877 61.97969388 38.28113622 57.52043187 37 53 C36.01 53.33 35.02 53.66 34 54 C34.26831195 59.45567642 35.0295581 63.45288347 37.4375 68.375 C40.92544178 75.56257946 42.43275821 82.99397315 42 91 C41.34 91 40.68 91 40 91 C40.0928125 90.37738281 40.185625 89.75476563 40.28125 89.11328125 C41.10394792 78.5798097 36.89269629 69.83366083 32.84790039 60.30493164 C31.9582221 57.88643099 31.44139176 55.53541032 31 53 C30.34 53 29.68 53 29 53 Z M-4.7724762 61.63352966 C-5.29228561 62.15536331 -5.81209503 62.67719696 -6.34765625 63.21484375 C-6.87894638 63.74517715 -7.41023651 64.27551056 -7.95762634 64.82191467 C-9.08276418 65.94637054 -10.20663428 67.07209609 -11.3293457 68.19897461 C-13.05504691 69.93002381 -14.78600336 71.65568781 -16.51757812 73.38085938 C-17.60709163 74.47103366 -18.69629491 75.56151809 -19.78515625 76.65234375 C-20.56790672 77.43205788 -20.56790672 77.43205788 -21.36647034 78.2275238 C-23.88147591 80.26711096 -23.88147591 80.26711096 -25 83 C-22.36 83 -19.72 83 -17 83 C-17 87.95 -17 92.9 -17 98 C-14.36 97.01 -11.72 96.02 -9 95 C-8.896875 93.80375 -8.79375 92.6075 -8.6875 91.375 C-8.333488 88.43516123 -7.92558518 86.86047221 -6.5 84.1875 C-4.33887957 79.59511908 -4.25905789 75.02036328 -4 70 C-3.34 70 -2.68 70 -2 70 C-1.87625 70.72703125 -1.7525 71.4540625 -1.625 72.203125 C-1.0147577 74.93395931 -0.13366555 77.1992525 1 79.75 C2.99869866 84.57294677 3.66481515 88.80463481 4 94 C4.62648438 94.20496094 5.25296875 94.40992188 5.8984375 94.62109375 C6.71570313 94.89050781 7.53296875 95.15992188 8.375 95.4375 C9.18710938 95.70433594 9.99921875 95.97117188 10.8359375 96.24609375 C13 97 13 97 15 98 C15 93.05 15 88.1 15 83 C17.97 83 20.94 83 24 83 C21.33894953 79.59052909 18.69235818 76.65311683 15.375 73.875 C11.06245296 70.22211599 7.3432944 66.12526699 3.59326172 61.91162109 C2.41306437 60.59183503 1.20873142 59.29370375 0 58 C-2.09900652 58 -3.36677157 60.23704818 -4.7724762 61.63352966 Z M-2 80 C-5.75684097 86.3115387 -5.75684097 86.3115387 -7 93.375 C-5.98511064 96.03908456 -4.73279666 97.76180431 -3 100 C-2.3125 102.75 -2.3125 102.75 -2 105 C-9.89031079 105.15173675 -9.89031079 105.15173675 -13 104 C-13.66 103.34 -14.32 102.68 -15 102 C-14.54625711 106.87773605 -13.47822112 109.52177888 -10 113 C-5.57331558 115.85275218 -2.23420071 116.64279658 3 116 C7.31121237 114.47839563 10.09697028 112.33519768 12.5 108.4375 C14.40845904 105.10995074 14.40845904 105.10995074 13 102 C13 102.66 13 103.32 13 104 C11.20909747 104.19466332 9.41723495 104.38051213 7.625 104.5625 C6.62726563 104.66691406 5.62953125 104.77132812 4.6015625 104.87890625 C2 105 2 105 0 104 C0.14295891 102.60386935 0.28951558 101.20810692 0.4375 99.8125 C0.51871094 99.03519531 0.59992188 98.25789063 0.68359375 97.45703125 C1 95 1 95 1.625 92.53125 C2.07622569 89.48547658 1.53109373 87.5932812 0.5625 84.6875 C0.27503906 83.80449219 -0.01242188 82.92148438 -0.30859375 82.01171875 C-0.53675781 81.34785156 -0.76492187 80.68398437 -1 80 C-1.33 80 -1.66 80 -2 80 Z M15 137 C15.66 137.66 16.32 138.32 17 139 C17 138.34 17 137.68 17 137 C16.34 137 15.68 137 15 137 Z M14 138 C14 141 14 141 14 141 Z M14 141 C14.01160156 141.62648437 14.02320312 142.25296875 14.03515625 142.8984375 C14.04417969 143.71570313 14.05320312 144.53296875 14.0625 145.375 C14.07410156 146.18710938 14.08570312 146.99921875 14.09765625 147.8359375 C14 150 14 150 13 152 C13.66 152 14.32 152 15 152 C15.33 152.99 15.66 153.98 16 155 C16 151.37 16 147.74 16 144 C17.32 144.33 18.64 144.66 20 145 C20 145.66 20 146.32 20 147 C19.01 147.495 19.01 147.495 18 148 C19.07401108 150.91517292 19.77810176 152.77810176 22 155 C21.814375 154.113125 21.62875 153.22625 21.4375 152.3125 C21.01957516 149.14821189 21.19222258 147.05160358 22 144 C22.99 144 23.98 144 25 144 C25 145.65 25 147.3 25 149 C24.01 149.495 24.01 149.495 23 150 C23.66 150 24.32 150 25 150 C25 151.65 25 153.3 25 155 C25.33 155 25.66 155 26 155 C26 151.37 26 147.74 26 144 C26.66 143.67 27.32 143.34 28 143 C23.71 143 19.42 143 15 143 C14.67 142.34 14.34 141.68 14 141 Z M-56 143 C-55.01 143.33 -54.02 143.66 -53 144 C-53 145.32 -53 146.64 -53 148 C-53.99 148 -54.98 148 -56 148 C-56 148.66 -56 149.32 -56 150 C-55.34 150 -54.68 150 -54 150 C-53.67 151.65 -53.34 153.3 -53 155 C-52.11064623 151.696686 -51.53725895 148.37705625 -51 145 C-47.535 144.505 -47.535 144.505 -44 144 C-44.33 146.31 -44.66 148.62 -45 151 C-45.66 151 -46.32 151 -47 151 C-46.67 149.35 -46.34 147.7 -46 146 C-47.98 146.99 -47.98 146.99 -50 148 C-49.34 149.65 -48.68 151.3 -48 153 C-46.68 153 -45.36 153 -44 153 C-43.67 153.66 -43.34 154.32 -43 155 C-43 151.37 -43 147.74 -43 144 C-40.69 144 -38.38 144 -36 144 C-36 144.66 -36 145.32 -36 146 C-37.65 146.33 -39.3 146.66 -41 147 C-41 148.65 -41 150.3 -41 152 C-39.10820797 152.6814823 -39.10820797 152.6814823 -37 153 C-34.58878141 151.04366025 -34.58878141 151.04366025 -34.875 147.375 C-34.91625 146.26125 -34.9575 145.1475 -35 144 C-34.01 144 -33.02 144 -32 144 C-32 147.63 -32 151.26 -32 155 C-31.67 155 -31.34 155 -31 155 C-31 151.37 -31 147.74 -31 144 C-30.34 143.67 -29.68 143.34 -29 143 C-37.91 143 -46.82 143 -56 143 Z M-25 143 C-25 143.66 -25 144.32 -25 145 C-26.32 145 -27.64 145 -29 145 C-29 146.98 -29 148.96 -29 151 C-27.68 151 -26.36 151 -25 151 C-24.34 151.66 -23.68 152.32 -23 153 C-23.33 151.35 -23.66 149.7 -24 148 C-25.32 148 -26.64 148 -28 148 C-28 147.34 -28 146.68 -28 146 C-26.68 146 -25.36 146 -24 146 C-24 145.34 -24 144.68 -24 144 C-23.34 144 -22.68 144 -22 144 C-22 145.98 -22 147.96 -22 150 C-21.67 150 -21.34 150 -21 150 C-21 148.02 -21 146.04 -21 144 C-19.02 144 -17.04 144 -15 144 C-15 144.66 -15 145.32 -15 146 C-16.32 146.33 -17.64 146.66 -19 147 C-18.67 148.65 -18.34 150.3 -18 152 C-17.21625 152.12375 -16.4325 152.2475 -15.625 152.375 C-13 153 -13 153 -11 155 C-10.67 151.04 -10.34 147.08 -10 143 C-14.95 143 -19.9 143 -25 143 Z M-2 143 C-2.33 143.66 -2.66 144.32 -3 145 C-2.34 145 -1.68 145 -1 145 C-1.33 144.34 -1.66 143.68 -2 143 Z M1 143 C0.67 144.65 0.34 146.3 0 148 C0.66 148 1.32 148 2 148 C2 149.65 2 151.3 2 153 C2.33 152.01 2.66 151.02 3 150 C3.66 150 4.32 150 5 150 C5 151.65 5 153.3 5 155 C5.33 155 5.66 155 6 155 C6.33 151.04 6.66 147.08 7 143 C6.01 143.33 5.02 143.66 4 144 C4.33 145.65 4.66 147.3 5 149 C4.34 149 3.68 149 3 149 C2.67 147.02 2.34 145.04 2 143 C1.67 143 1.34 143 1 143 Z M12 143 C13 146 13 146 13 146 Z M29.5 144.25 C27.65196131 146.40604514 27.56652118 147.38944793 27.75 150.1875 C27.8325 151.445625 27.915 152.70375 28 154 C29.98 154.99 29.98 154.99 32 156 C32 155.34 32 154.68 32 154 C31.34 153.67 30.68 153.34 30 153 C30 151.68 30 150.36 30 149 C31.32 149.66 32.64 150.32 34 151 C33.67 150.01 33.34 149.02 33 148 C32.01 148 31.02 148 30 148 C30 147.34 30 146.68 30 146 C31.32 146 32.64 146 34 146 C34 145.34 34 144.68 34 144 C34.66 144 35.32 144 36 144 C36 147.63 36 151.26 36 155 C36.33 155 36.66 155 37 155 C37 151.37 37 147.74 37 144 C38.98 144 40.96 144 43 144 C43 144.66 43 145.32 43 146 C41.68 146.33 40.36 146.66 39 147 C39.33 148.65 39.66 150.3 40 152 C40.78375 152.12375 41.5675 152.2475 42.375 152.375 C45 153 45 153 47 155 C47.33 151.04 47.66 147.08 48 143 C45.41603321 142.91887546 42.83462432 142.85945252 40.25 142.8125 C39.52039063 142.78736328 38.79078125 142.76222656 38.0390625 142.73632812 C34.81677437 142.69238783 32.40661017 142.79669491 29.5 144.25 Z M9 146 C9.33 146.66 9.66 147.32 10 148 C10.66 147.34 11.32 146.68 12 146 C11.01 146 10.02 146 9 146 Z M8 148 C8.66 149.65 9.32 151.3 10 153 C10.99 152.67 11.98 152.34 13 152 C11.35 150.68 9.7 149.36 8 148 Z M-4 149 C-3.67 150.65 -3.34 152.3 -3 154 C-1.02 154.495 -1.02 154.495 1 155 C0.54625 154.566875 0.0925 154.13375 -0.375 153.6875 C-2 152 -2 152 -4 149 Z M-30 151 C-29.73323796 152.98491642 -29.73323796 152.98491642 -29 155 C-28.01 155.33 -27.02 155.66 -26 156 C-26 155.34 -26 154.68 -26 154 C-26.66 154 -27.32 154 -28 154 C-28.33 153.01 -28.66 152.02 -29 151 C-29.33 151 -29.66 151 -30 151 Z M34 151 C35 153 35 153 35 153 Z M-22 153 C-21 155 -21 155 -21 155 Z M50 153 C51 155 51 155 51 155 Z M-34 155 C-34.33 156.32 -34.66 157.64 -35 159 C-34.34 157.68 -33.68 156.36 -33 155 C-33.33 155 -33.66 155 -34 155 Z " fill="#07549C" transform="translate(91,0)"/>
<path d="M0 0 C4.95 0 9.9 0 15 0 C15 10.56 15 21.12 15 32 C21.27 32 27.54 32 34 32 C34 21.44 34 10.88 34 0 C38.95 0 43.9 0 49 0 C49 26.73 49 53.46 49 81 C44.05 81 39.1 81 34 81 C34 68.79 34 56.58 34 44 C27.73 44 21.46 44 15 44 C15 56.21 15 68.42 15 81 C10.05 81 5.1 81 0 81 C0 54.27 0 27.54 0 0 Z " fill="#095399" transform="translate(329,74)"/>
<path d="M0 0 C4.56684647 3.04144488 7.23176945 7.0600362 8.90625 12.26953125 C9.1613148 16.62093681 8.99440924 20.90564865 8.90625 25.26953125 C4.28625 25.26953125 -0.33375 25.26953125 -5.09375 25.26953125 C-5.38671875 21.11914062 -5.38671875 21.11914062 -5.6796875 16.96875 C-5.93240472 14.05424692 -5.93240472 14.05424692 -8.09375 11.26953125 C-12.20779258 10.53728525 -12.20779258 10.53728525 -16.09375 11.26953125 C-20.60999635 16.43996338 -20.66995438 20.83683905 -20.58984375 27.5234375 C-20.59129898 28.50191147 -20.59275421 29.48038544 -20.59425354 30.48851013 C-20.5925985 32.55023181 -20.5810816 34.61196635 -20.56030273 36.67358398 C-20.53131246 39.82524148 -20.53970967 42.97521917 -20.55273438 46.12695312 C-20.54649748 48.13412274 -20.53810692 50.14128706 -20.52734375 52.1484375 C-20.53174721 53.55797447 -20.53174721 53.55797447 -20.53623962 54.99598694 C-20.45872354 60.38115469 -20.09834513 64.26493612 -16.09375 68.26953125 C-13.42316149 68.41068286 -10.76942762 68.31200232 -8.09375 68.26953125 C-5.2216896 62.52541045 -4.53279697 57.67961696 -4.09375 51.26953125 C0.52625 51.26953125 5.14625 51.26953125 9.90625 51.26953125 C10.25801191 60.4153409 10.01271223 68.73769306 4.15625 76.20703125 C-0.87102347 81.39331823 -5.43170878 82.44488303 -12.46875 82.70703125 C-19.62875069 82.52576541 -25.02518966 81.00635534 -30.40625 76.20703125 C-36.59153596 65.44005198 -36.68928671 55.31367931 -36.56030273 43.19018555 C-36.53128095 40.21020937 -36.53973602 37.23201104 -36.55273438 34.25195312 C-36.5464969 32.32941857 -36.53810589 30.40688955 -36.52734375 28.484375 C-36.53027939 27.60804916 -36.53321503 26.73172333 -36.53623962 25.82884216 C-36.39776677 16.6077815 -34.49098277 8.61452651 -27.96484375 1.8984375 C-20.23475966 -4.83109291 -8.81650894 -4.52005803 0 0 Z " fill="#085399" transform="translate(290.09375,74.73046875)"/>
<path d="M0 0 C13.2 0 26.4 0 40 0 C40 3.96 40 7.92 40 12 C31.42 12 22.84 12 14 12 C14 18.93 14 25.86 14 33 C21.92 33 29.84 33 38 33 C38 36.63 38 40.26 38 44 C30.08 44 22.16 44 14 44 C14 56.21 14 68.42 14 81 C9.38 81 4.76 81 0 81 C0 54.27 0 27.54 0 0 Z " fill="#01519C" transform="translate(394,74)"/>
<path d="M0 0 C4.95 0 9.9 0 15 0 C15 22.77 15 45.54 15 69 C23.58 69 32.16 69 41 69 C41 72.96 41 76.92 41 81 C27.47 81 13.94 81 0 81 C0 54.27 0 27.54 0 0 Z " fill="#0B5498" transform="translate(172,74)"/>
<path d="M0 0 C2.75613676 0.89388219 3.68017152 1.50426586 5.25 3.9375 C6 6 6 6 6 9 C3.525 8.505 3.525 8.505 1 8 C0.67 6.68 0.34 5.36 0 4 C-2.31 4.66 -4.62 5.32 -7 6 C-7.02686553 7.97909398 -7.04633375 9.95828971 -7.0625 11.9375 C-7.07410156 13.03964844 -7.08570313 14.14179688 -7.09765625 15.27734375 C-7.31262571 17.91447634 -7.31262571 17.91447634 -6 19 C-4.33382885 19.04063832 -2.66611905 19.042721 -1 19 C-0.34 17.35 0.32 15.7 1 14 C-0.98 14.33 -2.96 14.66 -5 15 C-5 13.68 -5 12.36 -5 11 C-1.37 11 2.26 11 6 11 C6 14.96 6 18.92 6 23 C12.6 23 19.2 23 26 23 C26 15.74 26 8.48 26 1 C30.95 1 35.9 1 41 1 C41 1.99 41 2.98 41 4 C37.7 4 34.4 4 31 4 C31 5.98 31 7.96 31 10 C32.11375 9.814375 33.2275 9.62875 34.375 9.4375 C38 9 38 9 40 10 C40 10.99 40 11.98 40 13 C37.03 13 34.06 13 31 13 C31 16.3 31 19.6 31 23 C36.28 23 41.56 23 47 23 C47 15.74 47 8.48 47 1 C48.65 0.67 50.3 0.34 52 0 C52 7.59 52 15.18 52 23 C54.64 23 57.28 23 60 23 C60 15.74 60 8.48 60 1 C62.31 1 64.62 1 67 1 C68.98 5.29 70.96 9.58 73 14 C73 9.71 73 5.42 73 1 C74.65 1 76.3 1 78 1 C78 8.26 78 15.52 78 23 C79.65 23 81.3 23 83 23 C83.23783203 22.12601563 83.23783203 22.12601563 83.48046875 21.234375 C85.4679738 14.2506556 88.10716317 7.65466812 91 1 C92.98 1 94.96 1 97 1 C98.17461555 4.10121711 99.33830456 7.20642241 100.5 10.3125 C100.83386719 11.19357422 101.16773438 12.07464844 101.51171875 12.98242188 C101.82753906 13.82998047 102.14335937 14.67753906 102.46875 15.55078125 C102.76201172 16.33106689 103.05527344 17.11135254 103.35742188 17.9152832 C104 20 104 20 104 23 C105.65 23 107.3 23 109 23 C109 15.74 109 8.48 109 1 C111.31 1 113.62 1 116 1 C117.98 4.96 119.96 8.92 122 13 C122 8.71 122 4.42 122 0 C124.31 0 126.62 0 129 0 C128.67 7.59 128.34 15.18 128 23 C131.63 23 135.26 23 139 23 C139 23.33 139 23.66 139 24 C120.05036272 24.09343034 101.10077216 24.16397281 82.15095234 24.20724869 C73.35226557 24.22787629 64.55372188 24.25600061 55.75512695 24.30175781 C48.08650164 24.3416196 40.41797996 24.36743138 32.74925393 24.37635398 C28.68845714 24.38156988 24.62795682 24.39383299 20.56725502 24.42292023 C16.74477602 24.4500791 12.92271548 24.45844417 9.10014915 24.45243073 C7.69768881 24.45353077 6.29521441 24.46148226 4.89283752 24.4768219 C2.97666055 24.49675276 1.06025883 24.48954759 -0.85600281 24.48101807 C-2.46407067 24.48654882 -2.46407067 24.48654882 -4.10462475 24.49219131 C-7.71712618 23.87809412 -9.385174 22.51452543 -12 20 C-13.96010221 16.07979559 -13.3528633 11.28388424 -13 7 C-10.26436517 0.61685207 -6.69935776 -0.47013037 0 0 Z M93 6 C92.34 8.64 91.68 11.28 91 14 C92.65 14 94.3 14 96 14 C95.34 11.36 94.68 8.72 94 6 C93.67 6 93.34 6 93 6 Z M64 7 C64 12.28 64 17.56 64 23 C66.31 23 68.62 23 71 23 C70.37183502 19.05050296 69.1354471 15.80107972 67.4375 12.1875 C66.98246094 11.21167969 66.52742188 10.23585937 66.05859375 9.23046875 C65.70925781 8.49441406 65.35992187 7.75835937 65 7 C64.67 7 64.34 7 64 7 Z M114 7 C114 12.28 114 17.56 114 23 C116.31 23 118.62 23 121 23 C119.25192871 17.53262809 117.34205919 12.24175152 115 7 C114.67 7 114.34 7 114 7 Z M90 17 C89.34 18.98 88.68 20.96 88 23 C91.63 23 95.26 23 99 23 C98.67 21.02 98.34 19.04 98 17 C95.36 17 92.72 17 90 17 Z " fill="#6991BD" transform="translate(243,178)"/>
<path d="M0 0 C4.62 0 9.24 0 14 0 C14 22.77 14 45.54 14 69 C22.58 69 31.16 69 40 69 C40 72.96 40 76.92 40 81 C26.8 81 13.6 81 0 81 C0 54.27 0 27.54 0 0 Z " fill="#01519C" transform="translate(446,74)"/>
<path d="M0 0 C4.62 0 9.24 0 14 0 C14 26.73 14 53.46 14 81 C9.38 81 4.76 81 0 81 C0 54.27 0 27.54 0 0 Z " fill="#04519C" transform="translate(225,74)"/>
<path d="M0 0 C5.28 0.33 10.56 0.66 16 1 C16 1.99 16 2.98 16 4 C12.7 4 9.4 4 6 4 C6 5.98 6 7.96 6 10 C9.3 10 12.6 10 16 10 C16 10.99 16 11.98 16 13 C12.7 13 9.4 13 6 13 C6 15.31 6 17.62 6 20 C9.63 20 13.26 20 17 20 C17 20.99 17 21.98 17 23 C23.27 23 29.54 23 36 23 C36 15.74 36 8.48 36 1 C37.65 1 39.3 1 41 1 C41 7.27 41 13.54 41 20 C44.63 20 48.26 20 52 20 C52 20.99 52 21.98 52 23 C55.63 23 59.26 23 63 23 C63 16.73 63 10.46 63 4 C60.36 4 57.72 4 55 4 C55 3.01 55 2.02 55 1 C61.27 1 67.54 1 74 1 C74 1.99 74 2.98 74 4 C71.69 4 69.38 4 67 4 C67 10.27 67 16.54 67 23 C71.29 23 75.58 23 80 23 C79.67 15.41 79.34 7.82 79 0 C91.8484252 0.36023622 91.8484252 0.36023622 96.375 2.875 C98.81012403 7.55793082 98.72963569 11.83045355 98 17 C96.62747293 20.11937969 96.020457 21.4897715 93 23 C82.18288104 24.62218822 71.04633186 24.1277798 60.140625 24.09765625 C58.13995398 24.09578772 56.13928249 24.09436587 54.13861084 24.09336853 C48.91087548 24.08957761 43.68316857 24.07977714 38.45544434 24.06866455 C33.1057168 24.05837622 27.75598461 24.05385511 22.40625 24.04882812 C11.93748761 24.03815132 1.46874618 24.02111677 -9 24 C-9 23.67 -9 23.34 -9 23 C-5.7 23 -2.4 23 1 23 C0.67 15.41 0.34 7.82 0 0 Z M84 4 C84 9.28 84 14.56 84 20 C86.64 19.67 89.28 19.34 92 19 C94.49410912 14.30520636 94.07738419 11.05541813 93 6 C89.76887492 3.4452998 89.76887492 3.4452998 84 4 Z " fill="#5984B6" transform="translate(401,178)"/>
<path d="M0 0 C0.66 0 1.32 0 2 0 C8.88838269 15.56036446 8.88838269 15.56036446 8 24 C8.63808594 24.13277344 9.27617188 24.26554687 9.93359375 24.40234375 C10.75988281 24.57894531 11.58617188 24.75554687 12.4375 24.9375 C13.67306641 25.19853516 13.67306641 25.19853516 14.93359375 25.46484375 C17 26 17 26 18 27 C18.33 22.38 18.66 17.76 19 13 C21.97 13 24.94 13 28 13 C28.33 9.04 28.66 5.08 29 1 C31.79926857 5.19890286 32.20202442 8.22772813 32.3125 13.1875 C32.36857422 14.81751953 32.36857422 14.81751953 32.42578125 16.48046875 C31.53597286 23.83567392 26.99671723 29.7692293 22.875 35.75 C18.93142007 41.5101561 15.96280716 45.93941417 15 53 C14.67 53 14.34 53 14 53 C13.71125 51.88625 13.4225 50.7725 13.125 49.625 C12.30758671 45.99708908 12.30758671 45.99708908 10 44 C10.78375 43.278125 11.5675 42.55625 12.375 41.8125 C14.84412438 39.16700959 15.93260278 37.39626389 17 34 C16.29875 34.33 15.5975 34.66 14.875 35 C11.67964413 36.11142813 9.36081648 36.29224491 6 36 C5.01 35.34 4.02 34.68 3 34 C3.14295891 32.60386935 3.28951558 31.20810692 3.4375 29.8125 C3.52386719 28.98363281 3.61023438 28.15476562 3.69921875 27.30078125 C4 25 4 25 4.75 22.5 C5.16076394 18.39236061 3.46418086 14.79694358 2 11 C-1.08374712 16.86190864 -1.08374712 16.86190864 -1.9375 23.3125 C-1.14441908 26.02906061 -1.14441908 26.02906061 0.5625 28.0625 C2.37738248 30.50864595 2.24790447 32.02514639 2 35 C-2.6290403 35.90765496 -5.82993597 36.45297884 -10 34 C-10.495 32.515 -10.495 32.515 -11 31 C-8.36 29.68 -5.72 28.36 -3 27 C-5.97 27.33 -8.94 27.66 -12 28 C-11.67 27.34 -11.34 26.68 -11 26 C-7.9375 25.375 -7.9375 25.375 -5 25 C-5.2475 24.360625 -5.495 23.72125 -5.75 23.0625 C-6.07157322 19.12322808 -4.75866441 17.04697404 -3.05859375 13.55859375 C-1.25857977 9.20800646 -0.65912397 4.63988584 0 0 Z " fill="#0D539B" transform="translate(87,70)"/>
<path d="M0 0 C2.75613676 0.89388219 3.68017152 1.50426586 5.25 3.9375 C6 6 6 6 6 9 C3.525 8.505 3.525 8.505 1 8 C0.67 6.68 0.34 5.36 0 4 C-2.31 4.66 -4.62 5.32 -7 6 C-7.02686553 7.97909398 -7.04633375 9.95828971 -7.0625 11.9375 C-7.07410156 13.03964844 -7.08570313 14.14179688 -7.09765625 15.27734375 C-7.31262571 17.91447634 -7.31262571 17.91447634 -6 19 C-4.33382885 19.04063832 -2.66611905 19.042721 -1 19 C-0.34 17.35 0.32 15.7 1 14 C-0.98 14.33 -2.96 14.66 -5 15 C-5 13.68 -5 12.36 -5 11 C-1.37 11 2.26 11 6 11 C6 14.96 6 18.92 6 23 C12.6 23 19.2 23 26 23 C26 15.74 26 8.48 26 1 C30.95 1 35.9 1 41 1 C41 1.99 41 2.98 41 4 C37.7 4 34.4 4 31 4 C31 5.98 31 7.96 31 10 C32.11375 9.814375 33.2275 9.62875 34.375 9.4375 C38 9 38 9 40 10 C40 10.99 40 11.98 40 13 C37.03 13 34.06 13 31 13 C31 16.3 31 19.6 31 23 C36.28 23 41.56 23 47 23 C47 15.74 47 8.48 47 1 C48.65 0.67 50.3 0.34 52 0 C52 7.59 52 15.18 52 23 C54.97 23 57.94 23 61 23 C61 23.33 61 23.66 61 24 C52.220326 24.09275026 43.44082108 24.16379012 34.66076374 24.20724869 C30.58364346 24.22810852 26.50685878 24.25639619 22.42993164 24.30175781 C18.49417518 24.34527382 14.55874118 24.36914918 10.62276268 24.37950897 C9.12244784 24.38689011 7.62215031 24.40130403 6.12197304 24.42292023 C4.01753469 24.45203262 1.91442233 24.45595302 -0.19018555 24.45410156 C-1.38709518 24.46298401 -2.58400482 24.47186646 -3.81718445 24.48101807 C-7.63497552 23.90403632 -9.27166717 22.67691954 -12 20 C-13.96010221 16.07979559 -13.3528633 11.28388424 -13 7 C-10.26436517 0.61685207 -6.69935776 -0.47013037 0 0 Z " fill="#C3D3E2" transform="translate(243,178)"/>
<path d="M0 0 C133.65 0 267.3 0 405 0 C405 0.33 405 0.66 405 1 C271.35 1 137.7 1 0 1 C0 0.67 0 0.34 0 0 Z " fill="#FDFCFC" transform="translate(93,0)"/>
<path d="M0 0 C0.66 0 1.32 0 2 0 C8.88838269 15.56036446 8.88838269 15.56036446 8 24 C8.99 24.33 9.98 24.66 11 25 C9.02 25.33 7.04 25.66 5 26 C5 26.66 5 27.32 5 28 C6.093125 27.979375 7.18625 27.95875 8.3125 27.9375 C12 28 12 28 15 29 C16.1875 31.5625 16.1875 31.5625 17 34 C13.17742309 35.79885972 10.2209225 36.36703674 6 36 C5.01 35.34 4.02 34.68 3 34 C3.14295891 32.60386935 3.28951558 31.20810692 3.4375 29.8125 C3.52386719 28.98363281 3.61023438 28.15476562 3.69921875 27.30078125 C4 25 4 25 4.75 22.5 C5.16076394 18.39236061 3.46418086 14.79694358 2 11 C-1.08374712 16.86190864 -1.08374712 16.86190864 -1.9375 23.3125 C-1.14441908 26.02906061 -1.14441908 26.02906061 0.5625 28.0625 C2.37738248 30.50864595 2.24790447 32.02514639 2 35 C-2.6290403 35.90765496 -5.82993597 36.45297884 -10 34 C-10.495 32.515 -10.495 32.515 -11 31 C-8.36 29.68 -5.72 28.36 -3 27 C-5.97 27.33 -8.94 27.66 -12 28 C-11.67 27.34 -11.34 26.68 -11 26 C-7.9375 25.375 -7.9375 25.375 -5 25 C-5.2475 24.360625 -5.495 23.72125 -5.75 23.0625 C-6.07157322 19.12322808 -4.75866441 17.04697404 -3.05859375 13.55859375 C-1.25857977 9.20800646 -0.65912397 4.63988584 0 0 Z " fill="#7194BD" transform="translate(87,70)"/>
<path d="M0 0 C2.475 0.495 2.475 0.495 5 1 C5 8.26 5 15.52 5 23 C8.63 23 12.26 23 16 23 C16 23.33 16 23.66 16 24 C3.46 24 -9.08 24 -22 24 C-22 23.67 -22 23.34 -22 23 C-19.03 23 -16.06 23 -13 23 C-13 15.74 -13 8.48 -13 1 C-11.02 1 -9.04 1 -7 1 C-5.02 4.96 -3.04 8.92 -1 13 C-0.67 8.71 -0.34 4.42 0 0 Z M-9 7 C-9 12.28 -9 17.56 -9 23 C-6.69 23 -4.38 23 -2 23 C-2.62816498 19.05050296 -3.8645529 15.80107972 -5.5625 12.1875 C-6.01753906 11.21167969 -6.47257813 10.23585937 -6.94140625 9.23046875 C-7.29074219 8.49441406 -7.64007813 7.75835937 -8 7 C-8.33 7 -8.66 7 -9 7 Z M0 15 C1 17 1 17 1 17 Z " fill="#80A2C7" transform="translate(218,178)"/>
<path d="M0 0 C1.32 0 2.64 0 4 0 C4 2.64 4 5.28 4 8 C6.64 8 9.28 8 12 8 C12.33 5.36 12.66 2.72 13 0 C14.65 0 16.3 0 18 0 C18 7.26 18 14.52 18 22 C21.63 22 25.26 22 29 22 C29 22.33 29 22.66 29 23 C11.51 23 -5.98 23 -24 23 C-24 22.67 -24 22.34 -24 22 C-16.08 22 -8.16 22 0 22 C0 14.74 0 7.48 0 0 Z M4 12 C4 15.3 4 18.6 4 22 C6.97 22 9.94 22 13 22 C13 18.7 13 15.4 13 12 C10.03 12 7.06 12 4 12 Z " fill="#7EA0C6" transform="translate(90,179)"/>
<path d="M0 0 C1.32 0 2.64 0 4 0 C4 6.27 4 12.54 4 19 C7.63 19 11.26 19 15 19 C15 19.99 15 20.98 15 22 C17.31 22 19.62 22 22 22 C22 14.74 22 7.48 22 0 C23.65 0 25.3 0 27 0 C27 7.26 27 14.52 27 22 C30.63 22 34.26 22 38 22 C38 22.33 38 22.66 38 23 C20.18 23 2.36 23 -16 23 C-16 22.67 -16 22.34 -16 22 C-11.05 21.67 -6.1 21.34 -1 21 C-0.67 14.07 -0.34 7.14 0 0 Z " fill="#BCCDE1" transform="translate(18,179)"/>
<path d="M0 0 C2.13371638 1.58053065 2.69965536 2.7824902 3.6875 5.25 C4.33496175 10.72331039 4.64770402 15.61765317 1.8125 20.4375 C-0.95388164 22.79706081 -1.9409039 23.21494376 -5.625 23.5625 C-9.88786111 23.20124058 -11.33242054 22.23007946 -14.3125 19.25 C-16.39790153 15.07919693 -15.76677114 9.79271136 -15.3125 5.25 C-11.67684837 -0.93060777 -6.90511157 -2.23949564 0 0 Z M-10.3125 5.25 C-10.63241706 8.07870249 -10.63241706 8.07870249 -10.5625 11.25 C-10.56765625 12.3225 -10.5728125 13.395 -10.578125 14.5 C-10.59277649 17.39362178 -10.59277649 17.39362178 -8.3125 19.25 C-5.8125 19.58333333 -5.8125 19.58333333 -3.3125 19.25 C-0.44047782 16.37797782 -0.3573844 13.1549432 -0.3125 9.25 C-1.2766861 5.93369042 -1.2766861 5.93369042 -3.3125 3.25 C-7.273668 2.85909667 -7.273668 2.85909667 -10.3125 5.25 Z " fill="#4F7AB0" transform="translate(130.3125,178.75)"/>
<path d="M0 0 C2.9375 2.3125 2.9375 2.3125 5 5 C5 5.99 5 6.98 5 8 C3.35 8 1.7 8 0 8 C-0.33 7.01 -0.66 6.02 -1 5 C-3.97 4.505 -3.97 4.505 -7 4 C-7 5.65 -7 7.3 -7 9 C-5.948125 9.103125 -4.89625 9.20625 -3.8125 9.3125 C-0.07179368 9.9870536 2.0454781 10.65376202 5 13 C6 14.875 6 14.875 6 17 C4.35923508 20.44560634 3.21487558 21.85674962 0 24 C-3.75069353 24.34728644 -6.35596945 24.25201195 -9.875 22.875 C-12.65265279 20.42412989 -12.75885033 18.61724502 -13 15 C-11.35 15 -9.7 15 -8 15 C-7.67 16.32 -7.34 17.64 -7 19 C-5.02 19 -3.04 19 -1 19 C-1 17.68 -1 16.36 -1 15 C-1.62648437 14.80664062 -2.25296875 14.61328125 -2.8984375 14.4140625 C-3.71570313 14.15367187 -4.53296875 13.89328125 -5.375 13.625 C-6.59316406 13.24214844 -6.59316406 13.24214844 -7.8359375 12.8515625 C-10 12 -10 12 -12 10 C-12.55979644 4.73791349 -12.55979644 4.73791349 -10.625 2.1875 C-7.07401523 -0.40745041 -4.36308742 -0.44370381 0 0 Z " fill="#4D79AF" transform="translate(179,178)"/>
<path d="M0 0 C2.75613676 0.89388219 3.68017152 1.50426586 5.25 3.9375 C6 6 6 6 6 9 C3.525 8.505 3.525 8.505 1 8 C0.67 6.68 0.34 5.36 0 4 C-2.31 4.66 -4.62 5.32 -7 6 C-7.02686553 7.97909398 -7.04633375 9.95828971 -7.0625 11.9375 C-7.07410156 13.03964844 -7.08570313 14.14179688 -7.09765625 15.27734375 C-7.31262571 17.91447634 -7.31262571 17.91447634 -6 19 C-4.33382885 19.04063832 -2.66611905 19.042721 -1 19 C-0.34 17.35 0.32 15.7 1 14 C-0.65 14 -2.3 14 -4 14 C-4 13.34 -4 12.68 -4 12 C-1.03 12 1.94 12 5 12 C5 15.63 5 19.26 5 23 C-5.93652459 24.60472131 -5.93652459 24.60472131 -10.1875 22.1875 C-13.99649489 17.5904372 -13.47444047 12.75987374 -13 7 C-10.26436517 0.61685207 -6.69935776 -0.47013037 0 0 Z " fill="#2C63A3" transform="translate(243,178)"/>
<path d="M0 0 C1.65 0 3.3 0 5 0 C5.33 6.27 5.66 12.54 6 19 C8.31 18.34 10.62 17.68 13 17 C13.33 11.39 13.66 5.78 14 0 C15.65 0.33 17.3 0.66 19 1 C19.05425226 3.39614126 19.09379027 5.79103853 19.125 8.1875 C19.15013672 9.19780273 19.15013672 9.19780273 19.17578125 10.22851562 C19.21528693 14.27784804 18.89009164 17.39470064 17 21 C13.64038988 23.6130301 10.11071355 23.36058891 6 23 C1.4 20.8 1.4 20.8 0 18 C-0.08308638 16.62451844 -0.10736016 15.24514204 -0.09765625 13.8671875 C-0.09443359 13.06152344 -0.09121094 12.25585938 -0.08789062 11.42578125 C-0.07951172 10.58402344 -0.07113281 9.74226562 -0.0625 8.875 C-0.05798828 8.02550781 -0.05347656 7.17601562 -0.04882812 6.30078125 C-0.03702874 4.20049091 -0.01909306 2.1002367 0 0 Z " fill="#7A9DC3" transform="translate(141,179)"/>
<path d="M0 0 C2.9375 1.6875 2.9375 1.6875 5 4 C5.3125 6.75 5.3125 6.75 5 9 C2.525 8.505 2.525 8.505 0 8 C-0.33 7.01 -0.66 6.02 -1 5 C-2.66611905 4.957279 -4.33382885 4.95936168 -6 5 C-7.27438431 6.05187652 -7.27438431 6.05187652 -7.1328125 8.43359375 C-7.13023438 9.42488281 -7.12765625 10.41617188 -7.125 11.4375 C-7.12757812 12.42621094 -7.13015625 13.41492188 -7.1328125 14.43359375 C-7.17228415 16.98909076 -7.17228415 16.98909076 -6 19 C-4.35 19 -2.7 19 -1 19 C-0.67 17.35 -0.34 15.7 0 14 C1.65 14 3.3 14 5 14 C4.51834131 20.38197767 4.51834131 20.38197767 2.375 22.9375 C-0.99002791 24.44290722 -3.35037432 24.44819965 -7 24 C-10.38939556 21.86320715 -11.72582557 20.8225233 -13 17 C-13.40813605 12.36922562 -13.56808336 8.29847625 -11.6875 4 C-8.13478002 -0.21063109 -5.30748599 -0.54905027 0 0 Z " fill="#5C87B6" transform="translate(65,178)"/>
<path d="M0 0 C2.0625 1.8125 2.0625 1.8125 3 4 C3 5.32 3 6.64 3 8 C1.35 8 -0.3 8 -2 8 C-2.33 6.35 -2.66 4.7 -3 3 C-4.98 3.33 -6.96 3.66 -9 4 C-10.07859862 11.54047904 -10.07859862 11.54047904 -9 19 C-6.54775306 18.89386164 -6.54775306 18.89386164 -4 18 C-2.62533375 15.52363988 -2.62533375 15.52363988 -2 13 C-0.35 13 1.3 13 3 13 C2.74624791 16.72169726 2.39626084 18.55712024 -0.125 21.375 C-3.79959438 23.45194465 -5.83754227 23.66896642 -10 23 C-12.9375 21.3125 -12.9375 21.3125 -15 18 C-15.68075769 12.39793151 -16.42262551 5.82229345 -13 1 C-8.85212694 -1.83570091 -4.67937815 -1.23188175 0 0 Z " fill="#386CA8" transform="translate(393,179)"/>
<path d="M0 0 C2.31 0 4.62 0 7 0 C8.0044134 2.2898234 9.00367612 4.5816599 10 6.875 C10.28617187 7.52597656 10.57234375 8.17695313 10.8671875 8.84765625 C13 13.7734375 13 13.7734375 13 16 C13.66 16 14.32 16 15 16 C15 11.05 15 6.1 15 1 C15.66 1 16.32 1 17 1 C17 7.6 17 14.2 17 21 C15.35 21 13.7 21 12 21 C10.48828125 19.42578125 10.48828125 19.42578125 9.3125 17.3125 C8.91675781 16.62800781 8.52101563 15.94351563 8.11328125 15.23828125 C6.94361439 12.88663524 5.97544752 10.4386188 5 8 C4.67 12.62 4.34 17.24 4 22 C2.68 22 1.36 22 0 22 C0 14.74 0 7.48 0 0 Z " fill="#4477AF" transform="translate(303,179)"/>
<path d="M0 0 C1.9453125 -0.29296875 1.9453125 -0.29296875 4.125 -0.1875 C5.40375 -0.125625 6.6825 -0.06375 8 0 C8 4.62 8 9.24 8 14 C13.55053286 13.25640327 13.55053286 13.25640327 19 12 C19.33 12.66 19.66 13.32 20 14 C19.36191406 14.21914062 18.72382812 14.43828125 18.06640625 14.6640625 C15.55695588 15.6271277 13.28375825 16.57803731 11 18 C9.78209281 21.116025 9.78209281 21.116025 10 24 C9.67 23.34 9.34 22.68 9 22 C8.38511719 21.87625 7.77023438 21.7525 7.13671875 21.625 C3.48633492 20.55724605 2.22132864 17.64791577 0.26953125 14.5546875 C-1.58116018 10.83052689 -2.40089191 7.15925361 -2 3 C-1.34 2.01 -0.68 1.02 0 0 Z " fill="#0E549B" transform="translate(65,84)"/>
<path d="M0 0 C13.4334845 -0.49297191 13.4334845 -0.49297191 15.92578125 1.67578125 C17.2026842 4.4385349 17.40029023 6.39845689 17.375 9.4375 C17.38273437 10.36433594 17.39046875 11.29117188 17.3984375 12.24609375 C16.90849198 15.63248193 16.28241483 17.42591756 14 20 C10.64453125 20.48828125 10.64453125 20.48828125 6.8125 20.3125 C3.4403125 20.1578125 3.4403125 20.1578125 0 20 C0 13.4 0 6.8 0 0 Z M3 2 C3 7.28 3 12.56 3 18 C5.64 17.67 8.28 17.34 11 17 C13.49410912 12.30520636 13.07738419 9.05541813 12 4 C8.76887492 1.4452998 8.76887492 1.4452998 3 2 Z " fill="#235A9E" transform="translate(482,180)"/>
<path d="M0 0 C15.84 0 31.68 0 48 0 C47.67 0.66 47.34 1.32 47 2 C42.05 1.67 37.1 1.34 32 1 C32 1.66 32 2.32 32 3 C30.68 3 29.36 3 28 3 C28 6.3 28 9.6 28 13 C28.66 13.33 29.32 13.66 30 14 C28.0085944 14.38133299 26.00720923 14.71325582 24 15 C23.67 14.67 23.34 14.34 23 14 C22.01 15.485 22.01 15.485 21 17 C20.34 17 19.68 17 19 17 C19 16.01 19 15.02 19 14 C15.86650268 12.95550089 15.01031744 13.06576355 12 14 C12 13.34 12 12.68 12 12 C11.34 11.67 10.68 11.34 10 11 C10.99 11 11.98 11 13 11 C13.33 8.03 13.66 5.06 14 2 C16.31 2 18.62 2 21 2 C21 2.66 21 3.32 21 4 C19.68 4.33 18.36 4.66 17 5 C17 6.65 17 8.3 17 10 C18.32 9.67 19.64 9.34 21 9 C21.33 6.69 21.66 4.38 22 2 C14.74 2 7.48 2 0 2 C0 1.34 0 0.68 0 0 Z " fill="#265CA0" transform="translate(34,142)"/>
<path d="M0 0 C0.33 0 0.66 0 1 0 C1 4.29 1 8.58 1 13 C-2.00015912 14.00005304 -3.97423756 14.11575585 -7.10546875 14.09765625 C-8.08837891 14.09443359 -9.07128906 14.09121094 -10.08398438 14.08789062 C-11.10814453 14.07951172 -12.13230469 14.07113281 -13.1875 14.0625 C-14.22326172 14.05798828 -15.25902344 14.05347656 -16.32617188 14.04882812 C-18.8841392 14.03704026 -21.44207686 14.01910482 -24 14 C-24 19.61 -24 25.22 -24 31 C-16.41 31.33 -8.82 31.66 -1 32 C-1 36.29 -1 40.58 -1 45 C-9.25 45 -17.5 45 -26 45 C-26 44.67 -26 44.34 -26 44 C-18.08 44 -10.16 44 -2 44 C-2 40.37 -2 36.74 -2 33 C-9.92 33 -17.84 33 -26 33 C-26 26.07 -26 19.14 -26 12 C-17.42 12 -8.84 12 0 12 C0 8.04 0 4.08 0 0 Z " fill="#C6B12C" transform="translate(434,74)"/>
<path d="M0 0 C0.33 0 0.66 0 1 0 C1 47.19 1 94.38 1 143 C0.67 143 0.34 143 0 143 C0 95.81 0 48.62 0 0 Z " fill="#FCFCFC" transform="translate(0,59)"/>
<path d="M0 0 C0.99 0.495 0.99 0.495 2 1 C2 26.08 2 51.16 2 77 C5.3 77.33 8.6 77.66 12 78 C12 66.78 12 55.56 12 44 C12.33 44 12.66 44 13 44 C13 55.88 13 67.76 13 80 C8.71 80 4.42 80 0 80 C0 53.6 0 27.2 0 0 Z " fill="#0049A6" transform="translate(394,75)"/>
<path d="M0 0 C4.62 0 9.24 0 14 0 C14 0.99 14 1.98 14 3 C10.7 3 7.4 3 4 3 C4 4.98 4 6.96 4 9 C5.670625 8.7215625 5.670625 8.7215625 7.375 8.4375 C11 8 11 8 13 9 C13 9.99 13 10.98 13 12 C9.7 12 6.4 12 3 12 C3 14.97 3 17.94 3 21 C2.01 21 1.02 21 0 21 C0 14.07 0 7.14 0 0 Z " fill="#285FA1" transform="translate(270,179)"/>
<path d="M0 0 C1.98 0 3.96 0 6 0 C8.01890086 4.87901042 9.52405359 8.62845068 9 14 C7.41132134 15.58867866 5.75310484 15.20794039 3.5625 15.25 C2.75941406 15.27578125 1.95632813 15.3015625 1.12890625 15.328125 C0.42636719 15.21984375 -0.27617187 15.1115625 -1 15 C-3 12 -3 12 -4 10 C-3.22265625 7.6171875 -3.22265625 7.6171875 -2.0625 4.875 C-1.68222656 3.96492187 -1.30195313 3.05484375 -0.91015625 2.1171875 C-0.60980469 1.41851562 -0.30945313 0.71984375 0 0 Z M2 5 C1.34 7.64 0.68 10.28 0 13 C1.65 13 3.3 13 5 13 C4.34 10.36 3.68 7.72 3 5 C2.67 5 2.34 5 2 5 Z " fill="#3E6DA6" transform="translate(334,179)"/>
<path d="M0 0 C2.31 0 4.62 0 7 0 C6.67 7.59 6.34 15.18 6 23 C9.63 23 13.26 23 17 23 C17 23.33 17 23.66 17 24 C8.42 24 -0.16 24 -9 24 C-9 23.67 -9 23.34 -9 23 C-4.38 22.67 0.24 22.34 5 22 C3.35 21.67 1.7 21.34 0 21 C0 20.01 0 19.02 0 18 C-0.66 17.67 -1.32 17.34 -2 17 C-1.01 16.67 -0.02 16.34 1 16 C0.67 10.72 0.34 5.44 0 0 Z " fill="#779BC3" transform="translate(365,178)"/>
<path d="M0 0 C0 7.26 0 14.52 0 22 C-4.10558718 24.05279359 -5.80206685 24.2216942 -10.25 24.125 C-11.32765625 24.10695312 -12.4053125 24.08890625 -13.515625 24.0703125 C-14.33546875 24.04710937 -15.1553125 24.02390625 -16 24 C-16 23.67 -16 23.34 -16 23 C-12.37 23 -8.74 23 -5 23 C-5 15.74 -5 8.48 -5 1 C-2 0 -2 0 0 0 Z " fill="#628BB9" transform="translate(197,178)"/>
<path d="M0 0 C0.33 0 0.66 0 1 0 C1 10.56 1 21.12 1 32 C7.27 32 13.54 32 20 32 C20 21.44 20 10.88 20 0 C20.33 0 20.66 0 21 0 C21 10.89 21 21.78 21 33 C15.5859375 33.2784375 15.5859375 33.2784375 10.0625 33.5625 C8.92304932 33.62381104 7.78359863 33.68512207 6.60961914 33.74829102 C5.71879639 33.79139404 4.82797363 33.83449707 3.91015625 33.87890625 C2.99371338 33.9260376 2.07727051 33.97316895 1.13305664 34.02172852 C-1 34 -1 34 -2 33 C-2.21832989 28.60001055 -2.18579146 24.19465188 -2.18530273 19.78979492 C-2.18748751 17.57516218 -2.20563531 15.36102877 -2.22460938 13.14648438 C-2.22754356 11.74479338 -2.22952819 10.3431 -2.23046875 8.94140625 C-2.23457764 7.65951416 -2.23868652 6.37762207 -2.24291992 5.05688477 C-2 2 -2 2 0 0 Z " fill="#3A6A7E" transform="translate(343,74)"/>
<path d="M0 0 C1.65 0.33 3.3 0.66 5 1 C5.6875 2.6875 5.6875 2.6875 6 5 C4.35923508 8.44560634 3.21487558 9.85674962 0 12 C-3.75069353 12.34728644 -6.35596945 12.25201195 -9.875 10.875 C-12.65265279 8.42412989 -12.75885033 6.61724502 -13 3 C-11.35 3 -9.7 3 -8 3 C-7.67 4.32 -7.34 5.64 -7 7 C-5.02 7 -3.04 7 -1 7 C-0.25042843 3.52852158 -0.25042843 3.52852158 0 0 Z " fill="#3B6CA8" transform="translate(179,190)"/>
<path d="M0 0 C1.65 0.33 3.3 0.66 5 1 C5.05425226 3.39614126 5.09379027 5.79103853 5.125 8.1875 C5.15013672 9.19780273 5.15013672 9.19780273 5.17578125 10.22851562 C5.21538674 14.28807807 4.80020002 17.34998815 3 21 C-0.3 21 -3.6 21 -7 21 C-7 20.67 -7 20.34 -7 20 C-5.35 20 -3.7 20 -2 20 C-1.13580777 17.40742331 -0.82419068 15.65962293 -0.68359375 12.98828125 C-0.64169922 12.23095703 -0.59980469 11.47363281 -0.55664062 10.69335938 C-0.51732422 9.90767578 -0.47800781 9.12199219 -0.4375 8.3125 C-0.37272461 7.11657227 -0.37272461 7.11657227 -0.30664062 5.89648438 C-0.20072632 3.93118553 -0.09987449 1.96561504 0 0 Z " fill="#4576AE" transform="translate(155,179)"/>
<path d="M0 0 C1.32 0 2.64 0 4 0 C4 6.27 4 12.54 4 19 C7.63 19 11.26 19 15 19 C15 19.66 15 20.32 15 21 C12.68756208 21.02685412 10.3750373 21.04632841 8.0625 21.0625 C6.77472656 21.07410156 5.48695312 21.08570313 4.16015625 21.09765625 C1 21 1 21 0 20 C-0.08669432 18.5112814 -0.10703494 17.018555 -0.09765625 15.52734375 C-0.09443359 14.62822266 -0.09121094 13.72910156 -0.08789062 12.80273438 C-0.07951172 11.85720703 -0.07113281 10.91167969 -0.0625 9.9375 C-0.05798828 8.98810547 -0.05347656 8.03871094 -0.04882812 7.06054688 C-0.0370011 4.70696935 -0.02052025 2.35351523 0 0 Z " fill="#20589D" transform="translate(18,179)"/>
<path d="M0 0 C1.32 0 2.64 0 4 0 C4 6.27 4 12.54 4 19 C7.3 19 10.6 19 14 19 C14 19.66 14 20.32 14 21 C9.38 21 4.76 21 0 21 C0 14.07 0 7.14 0 0 Z " fill="#265EA0" transform="translate(438,179)"/>
<path d="M0 0 C0.33 1.32 0.66 2.64 1 4 C11.89 4 22.78 4 34 4 C33.67 4.66 33.34 5.32 33 6 C31.96359375 5.97679687 30.9271875 5.95359375 29.859375 5.9296875 C28.48959056 5.91092333 27.1197983 5.89272382 25.75 5.875 C24.72712891 5.84986328 24.72712891 5.84986328 23.68359375 5.82421875 C18.48375927 5.72015941 18.48375927 5.72015941 14 8 C13.33932288 9.88776015 13.33932288 9.88776015 13.3125 12 C13.06329114 15.87341772 13.06329114 15.87341772 12 18 C11.01 18 10.02 18 9 18 C9 16.35 9 14.7 9 13 C8.01 13.33 7.02 13.66 6 14 C4.7922442 10.37673261 5.45688872 9.35853631 7 6 C7.99 6 8.98 6 10 6 C10 7.98 10 9.96 10 12 C10.33 10.02 10.66 8.04 11 6 C7.37 5.67 3.74 5.34 0 5 C-0.33 4.01 -0.66 3.02 -1 2 C-0.67 1.34 -0.34 0.68 0 0 Z " fill="#4E7EB2" transform="translate(106,138)"/>
<path d="M0 0 C2.9375 1.6875 2.9375 1.6875 5 4 C5.3125 6.75 5.3125 6.75 5 9 C3.35 8.67 1.7 8.34 0 8 C-0.33 7.01 -0.66 6.02 -1 5 C-3.41645782 4.83312552 -3.41645782 4.83312552 -6 5 C-8.49505962 7.49505962 -8.35948376 8.67328888 -8.625 12.125 C-8.69976562 13.03507813 -8.77453125 13.94515625 -8.8515625 14.8828125 C-8.90054688 15.58148438 -8.94953125 16.28015625 -9 17 C-9.99 16.67 -10.98 16.34 -12 16 C-12 13.69 -12 11.38 -12 9 C-11.34 9 -10.68 9 -10 9 C-10.061875 7.88625 -10.12375 6.7725 -10.1875 5.625 C-10.125625 4.42875 -10.06375 3.2325 -10 2 C-6.2626144 -0.4915904 -4.42668417 -0.45793285 0 0 Z " fill="#114C96" transform="translate(65,178)"/>
<path d="M0 0 C0.8971875 0.5259375 0.8971875 0.5259375 1.8125 1.0625 C1.1525 1.0625 0.4925 1.0625 -0.1875 1.0625 C-0.22875 2.238125 -0.27 3.41375 -0.3125 4.625 C-0.95927386 10.76935169 -3.43022176 16.167408 -5.8125 21.8046875 C-7.62734292 26.10462783 -8.30455962 29.11243205 -8.25 33.75 C-8.24097656 34.74386719 -8.23195312 35.73773438 -8.22265625 36.76171875 C-8.21105469 37.52097656 -8.19945312 38.28023437 -8.1875 39.0625 C-9.1775 39.0625 -10.1675 39.0625 -11.1875 39.0625 C-11.9565913 29.57704058 -9.9854534 22.69832261 -6.1875 14.0625 C-3.56101434 7.78940894 -3.56101434 7.78940894 -3.1875 1.0625 C-3.8475 0.7325 -4.5075 0.4025 -5.1875 0.0625 C-2.1875 -0.9375 -2.1875 -0.9375 0 0 Z " fill="#6F97C0" transform="translate(58.1875,51.9375)"/>
<path d="M0 0 C0.33 1.32 0.66 2.64 1 4 C1.66 4 2.32 4 3 4 C2.67 4.99 2.34 5.98 2 7 C1.67 6.67 1.34 6.34 1 6 C-4.14929266 20.66025269 -4.14929266 20.66025269 -6 36 C-6.66 36 -7.32 36 -8 36 C-11.32903444 29.34193112 -7.51384296 21.11332121 -5.5 14.5625 C-5.16613281 13.44939453 -4.83226562 12.33628906 -4.48828125 11.18945312 C-3.66735492 8.45694118 -2.83773028 5.7273977 -2 3 C-1.34 3 -0.68 3 0 3 C0 2.01 0 1.02 0 0 Z " fill="#648AB7" transform="translate(62,55)"/>
<path d="M0 0 C0.99 0 1.98 0 3 0 C3 0.99 3 1.98 3 3 C3.66 3 4.32 3 5 3 C9.57970645 14.50146643 13.30918737 24.44842587 12 37 C11.34 37 10.68 37 10 37 C9.88785156 35.5459375 9.88785156 35.5459375 9.7734375 34.0625 C8.98326092 25.55257666 7.32929405 18.13461461 4.03271484 10.23046875 C2.62343437 6.83914278 2 4.75079592 2 1 C1.34 0.67 0.68 0.34 0 0 Z " fill="#648CBA" transform="translate(126,52)"/>
<path d="M0 0 C0 3.96 0 7.92 0 12 C5.445 13.485 5.445 13.485 11 15 C11 15.66 11 16.32 11 17 C7.89951072 18.55024464 5.42105782 18.28992015 2 18 C-0.7109375 16.40234375 -0.7109375 16.40234375 -3 14 C-3.48828125 10.765625 -3.48828125 10.765625 -3.3125 7.25 C-3.26738281 6.07953125 -3.22226563 4.9090625 -3.17578125 3.703125 C-3.11777344 2.81109375 -3.05976562 1.9190625 -3 1 C-1 0 -1 0 0 0 Z " fill="#4B77AD" transform="translate(119,184)"/>
<path d="M0 0 C2.97 0 5.94 0 9 0 C9 0.66 9 1.32 9 2 C8.01 2.33 7.02 2.66 6 3 C6.33 4.98 6.66 6.96 7 9 C6.01 9 5.02 9 4 9 C4 9.99 4 10.98 4 12 C3.01 12 2.02 12 1 12 C1 11.34 1 10.68 1 10 C0.34 10 -0.32 10 -1 10 C-1.33 10.66 -1.66 11.32 -2 12 C-2 11.34 -2 10.68 -2 10 C-2.99 9.67 -3.98 9.34 -5 9 C-4.67 7.68 -4.34 6.36 -4 5 C-3.01 5 -2.02 5 -1 5 C-1.99 4.67 -2.98 4.34 -4 4 C-4 3.34 -4 2.68 -4 2 C-2.68 2 -1.36 2 0 2 C0 1.34 0 0.68 0 0 Z M0 7 C1 9 1 9 1 9 Z " fill="#7598BF" transform="translate(125,144)"/>
<path d="M0 0 C3.25298581 3.25298581 3.88065735 7.58528295 5.125 11.9375 C5.39779785 12.8864917 5.6705957 13.8354834 5.95166016 14.81323242 C7.72724332 21.28032057 8.85085735 27.27192432 8 34 C7.01 33.34 6.02 32.68 5 32 C5 30.37818744 5.01149311 28.75553176 5.08203125 27.13525391 C4.91645093 22.82523766 3.31635303 18.76404374 2 14.6875 C1.43526497 12.90044435 0.87265547 11.11271516 0.3125 9.32421875 C0.06113281 8.54135498 -0.19023438 7.75849121 -0.44921875 6.9519043 C-1 5 -1 5 -1 3 C-1.66 2.67 -2.32 2.34 -3 2 C-2.01 2 -1.02 2 0 2 C0 1.34 0 0.68 0 0 Z " fill="#688EB9" transform="translate(119,58)"/>
<path d="M0 0 C0.33 0 0.66 0 1 0 C1.226875 1.258125 1.45375 2.51625 1.6875 3.8125 C2.51823105 7.63147225 3.7882746 10.86571046 5.5 14.375 C8.89382513 21.53416366 11.12512724 29.13702923 9 37 C8.34 37 7.68 37 7 37 C7.00902344 36.34257813 7.01804688 35.68515625 7.02734375 35.0078125 C6.77788015 27.00328466 4.59425705 20.62776838 1.35131836 13.40869141 C-0.81185144 8.39288646 -1.2844238 5.34235613 0 0 Z " fill="#6A90BB" transform="translate(124,54)"/>
<path d="M0 0 C2.97 0 5.94 0 9 0 C9 0.66 9 1.32 9 2 C8.01 2.33 7.02 2.66 6 3 C6.061875 4.11375 6.061875 4.11375 6.125 5.25 C5.99601866 8.08758952 5.42948778 9.58773938 4 12 C3.01 12 2.02 12 1 12 C1 11.34 1 10.68 1 10 C0.34 10 -0.32 10 -1 10 C-1.33 10.66 -1.66 11.32 -2 12 C-2 11.34 -2 10.68 -2 10 C-2.66 10 -3.32 10 -4 10 C-4.33 9.01 -4.66 8.02 -5 7 C-1.125 6 -1.125 6 0 6 C0 5.34 0 4.68 0 4 C-1.32 4 -2.64 4 -4 4 C-4 3.34 -4 2.68 -4 2 C-2.68 2 -1.36 2 0 2 C0 1.34 0 0.68 0 0 Z M2 9 C3 11 3 11 3 11 Z " fill="#799AC0" transform="translate(67,144)"/>
<path d="M0 0 C2.86526252 4.29789378 3.18084884 7.36065206 3.25 12.4375 C3.28867188 14.13712891 3.28867188 14.13712891 3.328125 15.87109375 C2.97468205 19.24142471 2.27823183 20.5598938 0 23 C0 20.36 0 17.72 0 15 C-2.97 14.67 -5.94 14.34 -9 14 C-9 18.29 -9 22.58 -9 27 C-9.33 27 -9.66 27 -10 27 C-10 22.05 -10 17.1 -10 12 C-7.03 12 -4.06 12 -1 12 C-0.67 8.04 -0.34 4.08 0 0 Z " fill="#5681B4" transform="translate(116,71)"/>
<path d="M0 0 C26.07 0 52.14 0 79 0 C79 0.33 79 0.66 79 1 C52.93 1 26.86 1 0 1 C0 0.67 0 0.34 0 0 Z " fill="#FDFCFC" transform="translate(2,0)"/>
<path d="M0 0 C1.65 0 3.3 0 5 0 C4.74624791 3.72169726 4.39626084 5.55712024 1.875 8.375 C-1.66550715 10.37615621 -3.99281208 10.38530653 -8 10 C-9 9 -9 9 -9.09765625 7.15234375 C-9.06510417 5.1015625 -9.03255208 3.05078125 -9 1 C-7 4 -7 4 -7 6 C-4.54775306 5.89386164 -4.54775306 5.89386164 -2 5 C-0.62533375 2.52363988 -0.62533375 2.52363988 0 0 Z " fill="#3F6DA7" transform="translate(391,192)"/>
<path d="M0 0 C0.66 0 1.32 0 2 0 C3.55440478 5.6491511 2.17943713 9.06321405 0.0625 14.25 C-2.44659503 20.78395456 -3.67426855 25.92018024 -3 33 C-4.485 33.495 -4.485 33.495 -6 34 C-6.93546552 24.03902453 -4.91993418 16.81025376 -1.3125 7.65234375 C0.22545653 4.01944922 0.22545653 4.01944922 0 0 Z " fill="#5986B5" transform="translate(48,55)"/>
<path d="M0 0 C0.99 0 1.98 0 3 0 C3 6.93 3 13.86 3 21 C2.01 21 1.02 21 0 21 C0 17.7 0 14.4 0 11 C-3.3 11 -6.6 11 -10 11 C-10 10.67 -10 10.34 -10 10 C-6.7 10 -3.4 10 0 10 C0 6.7 0 3.4 0 0 Z " fill="#024493" transform="translate(104,179)"/>
<path d="M0 0 C2.97 0 5.94 0 9 0 C9 3.63 9 7.26 9 11 C4.71 10.67 0.42 10.34 -4 10 C-2 8 -2 8 1.0625 7.125 C2.5165625 6.568125 2.5165625 6.568125 4 6 C4.96877057 3.96756452 4.96877057 3.96756452 5 2 C3.35 2 1.7 2 0 2 C0 1.34 0 0.68 0 0 Z " fill="#3065A3" transform="translate(239,190)"/>
<path d="M0 0 C2.475 0.99 2.475 0.99 5 2 C5 2.99 5 3.98 5 5 C5.66 5.33 6.32 5.66 7 6 C6.01 6.33 5.02 6.66 4 7 C3.67 11.29 3.34 15.58 3 20 C2.01 20 1.02 20 0 20 C0 13.4 0 6.8 0 0 Z " fill="#114E98" transform="translate(206,180)"/>
<path d="M0 0 C2.9375 2.3125 2.9375 2.3125 5 5 C5 5.99 5 6.98 5 8 C3.35 8 1.7 8 0 8 C-0.33 7.01 -0.66 6.02 -1 5 C-3.97 4.505 -3.97 4.505 -7 4 C-7.33 4.66 -7.66 5.32 -8 6 C-8 5.34 -8 4.68 -8 4 C-8.99 4 -9.98 4 -11 4 C-11 3.34 -11 2.68 -11 2 C-7.33755697 -0.34396354 -4.27605847 -0.52512999 0 0 Z " fill="#537CB0" transform="translate(179,178)"/>
<path d="M0 0 C1.41750563 0.11509661 2.83401169 0.24253658 4.25 0.375 C5.03890625 0.44460937 5.8278125 0.51421875 6.640625 0.5859375 C9.085877 1.01507113 10.84836903 1.78600638 13 3 C13 3.66 13 4.32 13 5 C9.17291493 6.80098121 6.22146566 7.28143104 2 7 C1.34 6.67 0.68 6.34 0 6 C0 4.02 0 2.04 0 0 Z " fill="#094D97" transform="translate(91,99)"/>
<path d="M0 0 C0.99 0 1.98 0 3 0 C3 6.93 3 13.86 3 21 C2.01 21 1.02 21 0 21 C0 14.07 0 7.14 0 0 Z " fill="#094894" transform="translate(291,179)"/>
<path d="M0 0 C0.99 0 1.98 0 3 0 C3 6.93 3 13.86 3 21 C2.01 21 1.02 21 0 21 C0 14.07 0 7.14 0 0 Z " fill="#044793" transform="translate(41,179)"/>
<path d="M0 0 C0 1.65 0 3.3 0 5 C-4.71599818 5.92470553 -7.67265609 6.22923777 -12 4 C-11.67 3.01 -11.34 2.02 -11 1 C-9.2578125 0.234375 -9.2578125 0.234375 -7.125 -0.25 C-6.07699219 -0.50523438 -6.07699219 -0.50523438 -5.0078125 -0.765625 C-3 -1 -3 -1 0 0 Z " fill="#3168A6" transform="translate(89,100)"/>
<path d="M0 0 C1.98 0 3.96 0 6 0 C8.03993514 4.92984325 9.40652968 8.57960425 9 14 C6.3333581 15.33332095 4.83319697 14.67102033 2 14 C2 13.34 2 12.68 2 12 C2.66 11.67 3.32 11.34 4 11 C3.34 8.69 2.68 6.38 2 4 C2.66 4 3.32 4 4 4 C4.33 3.01 4.66 2.02 5 1 C3.35 1 1.7 1 0 1 C0 0.67 0 0.34 0 0 Z " fill="#4575AC" transform="translate(334,179)"/>
<path d="M0 0 C0.2475 0.53625 0.495 1.0725 0.75 1.625 C2.96810761 5.83940445 5.44064691 9.79658222 9 13 C7.35 13.33 5.7 13.66 4 14 C3.67 14.99 3.34 15.98 3 17 C2.66226563 16.31292969 2.32453125 15.62585938 1.9765625 14.91796875 C1.53054687 14.01691406 1.08453125 13.11585937 0.625 12.1875 C0.18414062 11.29417969 -0.25671875 10.40085937 -0.7109375 9.48046875 C-2.01866905 6.85443619 -2.01866905 6.85443619 -4 4 C-3.01 4 -2.02 4 -1 4 C-0.67 2.68 -0.34 1.36 0 0 Z " fill="#4776AC" transform="translate(75,102)"/>
<path d="M0 0 C2.64 0 5.28 0 8 0 C8 2.31 8 4.62 8 7 C6.68 7 5.36 7 4 7 C4.33 5.68 4.66 4.36 5 3 C4.01 3.495 4.01 3.495 3 4 C3 4.99 3 5.98 3 7 C2.34 7 1.68 7 1 7 C1 8.65 1 10.3 1 12 C0.01 12 -0.98 12 -2 12 C-1.44687265 7.97007218 -0.8441938 3.97977076 0 0 Z " fill="#6286B6" transform="translate(39,144)"/>
<path d="M0 0 C15.84 0 31.68 0 48 0 C47.67 0.66 47.34 1.32 47 2 C42.05 1.67 37.1 1.34 32 1 C32 1.66 32 2.32 32 3 C30.68 3 29.36 3 28 3 C28 2.34 28 1.68 28 1 C18.76 1.33 9.52 1.66 0 2 C0 1.34 0 0.68 0 0 Z " fill="#D2DFE9" transform="translate(34,142)"/>
<path d="M0 0 C0.66 0 1.32 0 2 0 C3.19864774 4.19526709 2.6352779 6.04807841 1 10 C0.42674959 12.09578246 -0.11442441 14.2005737 -0.625 16.3125 C-0.88539062 17.38113281 -1.14578125 18.44976562 -1.4140625 19.55078125 C-1.70410156 20.76314453 -1.70410156 20.76314453 -2 22 C-2.33 22 -2.66 22 -3 22 C-3.28875 20.88625 -3.5775 19.7725 -3.875 18.625 C-4.69241329 14.99708908 -4.69241329 14.99708908 -7 13 C-6.21625 12.2575 -5.4325 11.515 -4.625 10.75 C-0.96295491 6.91357181 0 5.32682323 0 0 Z " fill="#4676AD" transform="translate(104,101)"/>
<path d="M0 0 C0.66 0 1.32 0 2 0 C2 6.6 2 13.2 2 20 C0.35 20 -1.3 20 -3 20 C-3.33 18.68 -3.66 17.36 -4 16 C-2.68 16.33 -1.36 16.66 0 17 C0 11.39 0 5.78 0 0 Z " fill="#023F8F" transform="translate(318,180)"/>
<path d="M0 0 C0.66 0 1.32 0 2 0 C2 6.6 2 13.2 2 20 C0.35 20 -1.3 20 -3 20 C-3.33 18.68 -3.66 17.36 -4 16 C-2.68 16.33 -1.36 16.66 0 17 C0 11.39 0 5.78 0 0 Z " fill="#023F91" transform="translate(220,180)"/>
<path d="M0 0 C7.42857143 -0.14285714 7.42857143 -0.14285714 11 1 C11 1.99 11 2.98 11 4 C10.01 4 9.02 4 8 4 C7.34 6.97 6.68 9.94 6 13 C5.67 13 5.34 13 5 13 C5 9.37 5 5.74 5 2 C4.67 2 4.34 2 4 2 C4 3.65 4 5.3 4 7 C3.34 7 2.68 7 2 7 C1.34 4.69 0.68 2.38 0 0 Z " fill="#90A9C9" transform="translate(92,142)"/>
<path d="M0 0 C0.33 0 0.66 0 1 0 C1.33 2.64 1.66 5.28 2 8 C5.63 8 9.26 8 13 8 C12.67 13.28 12.34 18.56 12 24 C11.67 24 11.34 24 11 24 C11 19.38 11 14.76 11 10 C8.36 10.33 5.72 10.66 3 11 C2.34 12.98 1.68 14.96 1 17 C0.34 16.34 -0.32 15.68 -1 15 C-0.98252112 12.40730017 -0.86231408 9.9474846 -0.625 7.375 C-0.56828125 6.66859375 -0.5115625 5.9621875 -0.453125 5.234375 C-0.31159079 3.48878639 -0.15702613 1.74426327 0 0 Z " fill="#7499C0" transform="translate(62,74)"/>
<path d="M0 0 C0.33 0 0.66 0 1 0 C1 17.16 1 34.32 1 52 C0.67 52 0.34 52 0 52 C0 34.84 0 17.68 0 0 Z " fill="#FCFCFC" transform="translate(0,0)"/>
<path d="M0 0 C1.65 0 3.3 0 5 0 C4.125 6.875 4.125 6.875 3 8 C1.14712498 8.07226502 -0.70833878 8.0838122 -2.5625 8.0625 C-3.57441406 8.05347656 -4.58632813 8.04445312 -5.62890625 8.03515625 C-6.41136719 8.02355469 -7.19382813 8.01195312 -8 8 C-5.64046906 5.64046906 -4.22104383 5.50858587 -1 5 C-0.67 3.35 -0.34 1.7 0 0 Z " fill="#426FA9" transform="translate(65,192)"/>
<path d="M0 0 C8.25597814 0.34616261 8.25597814 0.34616261 11.0625 2.8125 C12 5 12 5 12 9 C10.35 9 8.7 9 7 9 C6.67 7.35 6.34 5.7 6 4 C4.35 4 2.7 4 1 4 C2.32 3.67 3.64 3.34 5 3 C5 2.34 5 1.68 5 1 C3.35 1 1.7 1 0 1 C0 0.67 0 0.34 0 0 Z " fill="#6A8FBB" transform="translate(384,178)"/>
<path d="M0 0 C4.04146606 -0.31697773 6.37764693 -0.35752198 9.9375 1.6875 C12 4 12 4 12.3125 6.75 C12.1578125 7.86375 12.1578125 7.86375 12 9 C10.35 8.67 8.7 8.34 7 8 C6.67 7.01 6.34 6.02 6 5 C4.35 4.67 2.7 4.34 1 4 C1 3.67 1 3.34 1 3 C2.65 3 4.3 3 6 3 C6 2.34 6 1.68 6 1 C4.02 1 2.04 1 0 1 C0 0.67 0 0.34 0 0 Z " fill="#7498BF" transform="translate(58,178)"/>
<path d="M0 0 C0.99 0 1.98 0 3 0 C3 5.61 3 11.22 3 17 C2.34 17 1.68 17 1 17 C-0.18681726 13.43954823 -0.09689832 10.56191663 -0.0625 6.8125 C-0.05347656 5.54019531 -0.04445312 4.26789063 -0.03515625 2.95703125 C-0.02355469 1.98121094 -0.01195312 1.00539062 0 0 Z " fill="#074995" transform="translate(142,179)"/>
<path d="M0 0 C1.65 0 3.3 0 5 0 C4.67 0.99 4.34 1.98 4 3 C3.34 3 2.68 3 2 3 C2 8.61 2 14.22 2 20 C1.34 20 0.68 20 0 20 C0 13.4 0 6.8 0 0 Z " fill="#01408F" transform="translate(354,180)"/>
<path d="M0 0 C0.33 1.32 0.66 2.64 1 4 C11.89 4 22.78 4 34 4 C33.67 4.66 33.34 5.32 33 6 C31.44539063 5.98259766 31.44539063 5.98259766 29.859375 5.96484375 C28.48958514 5.95546163 27.11979332 5.94636188 25.75 5.9375 C25.06808594 5.92912109 24.38617188 5.92074219 23.68359375 5.91210938 C20.27514594 5.89556351 17.28157134 6.09838015 14 7 C13.67 6.67 13.34 6.34 13 6 C10.81707226 5.76518307 8.62796826 5.58636677 6.4375 5.4375 C5.23996094 5.35371094 4.04242188 5.26992187 2.80859375 5.18359375 C1.88175781 5.12300781 0.95492187 5.06242188 0 5 C-0.33 4.01 -0.66 3.02 -1 2 C-0.67 1.34 -0.34 0.68 0 0 Z " fill="#CDD9E5" transform="translate(106,138)"/>
<path d="M0 0 C7.89031079 -0.30347349 7.89031079 -0.30347349 11 2 C12.69066658 4.6205332 13 5.82629722 13 9 C11.35 8.67 9.7 8.34 8 8 C7.67 6.68 7.34 5.36 7 4 C5.02 4 3.04 4 1 4 C1 3.67 1 3.34 1 3 C2.65 3 4.3 3 6 3 C6 2.34 6 1.68 6 1 C4.02 1 2.04 1 0 1 C0 0.67 0 0.34 0 0 Z " fill="#6489B8" transform="translate(236,178)"/>
<path d="M0 0 C1.65 0 3.3 0 5 0 C5 0.66 5 1.32 5 2 C4.01 2 3.02 2 2 2 C2 7.94 2 13.88 2 20 C1.34 20 0.68 20 0 20 C0 13.4 0 6.8 0 0 Z " fill="#003C8C" transform="translate(304,180)"/>
<path d="M0 0 C0.33 0 0.66 0 1 0 C1 3.3 1 6.6 1 10 C1.66 10 2.32 10 3 10 C3.33 10.66 3.66 11.32 4 12 C4.99 12 5.98 12 7 12 C7 12.66 7 13.32 7 14 C9.31 14.33 11.62 14.66 14 15 C12 17 12 17 9.1875 17.375 C5.29958551 16.9175983 3.77434503 15.69507803 1 13 C-0.32229189 10.35541621 -0.09677194 8.32238699 -0.0625 5.375 C-0.05347656 4.37210938 -0.04445312 3.36921875 -0.03515625 2.3359375 C-0.02355469 1.56507813 -0.01195312 0.79421875 0 0 Z " fill="#6A8FBA" transform="translate(230,185)"/>
<path d="M0 0 C0.66 0.33 1.32 0.66 2 1 C1.67 1.66 1.34 2.32 1 3 C1.66 3.33 2.32 3.66 3 4 C2.67 4.33 2.34 4.66 2 5 C1.76572222 7.01594582 1.58663876 9.038474 1.4375 11.0625 C1.35371094 12.16722656 1.26992187 13.27195313 1.18359375 14.41015625 C1.12300781 15.26480469 1.06242187 16.11945313 1 17 C0.67 17 0.34 17 0 17 C-0.33 13.37 -0.66 9.74 -1 6 C-1.66 6 -2.32 6 -3 6 C-3 9.63 -3 13.26 -3 17 C-3.33 17 -3.66 17 -4 17 C-4.63019694 6.02407002 -4.63019694 6.02407002 -2 1.75 C-1.01 0.88375 -1.01 0.88375 0 0 Z " fill="#7799C0" transform="translate(119,179)"/>
<path d="M0 0 C0.66 0 1.32 0 2 0 C3.83354669 3.77494907 4.27227191 5.97113896 3 10 C2.01 11.485 2.01 11.485 1 13 C0.34 13 -0.32 13 -1 13 C-0.67 8.71 -0.34 4.42 0 0 Z " fill="#708FBB" transform="translate(87,70)"/>
<path d="M0 0 C1.32 0 2.64 0 4 0 C6.35953094 2.35953094 6.49141413 3.77895617 7 7 C7.66 7 8.32 7 9 7 C9 7.66 9 8.32 9 9 C7.68 8.67 6.36 8.34 5 8 C4.67 8.66 4.34 9.32 4 10 C3.32845067 8.71086513 2.66291141 7.41859796 2 6.125 C1.62875 5.40570313 1.2575 4.68640625 0.875 3.9453125 C0 2 0 2 0 0 Z " fill="#517CB0" transform="translate(309,188)"/>
<path d="M0 0 C1.32 0 2.64 0 4 0 C4 3.63 4 7.26 4 11 C4.66 11.33 5.32 11.66 6 12 C4.02 12.33 2.04 12.66 0 13 C0 8.71 0 4.42 0 0 Z " fill="#87A6C7" transform="translate(58,144)"/>
<path d="M0 0 C0.33 0 0.66 0 1 0 C1.10841951 1.91541138 1.18578079 3.83259773 1.25 5.75 C1.29640625 6.81734375 1.3428125 7.8846875 1.390625 8.984375 C0.91735478 12.63802112 -0.19155042 13.72228105 -3 16 C-3.99 15.67 -4.98 15.34 -6 15 C-5.34 12.36 -4.68 9.72 -4 7 C-3.01 7.99 -2.02 8.98 -1 10 C-0.67 6.7 -0.34 3.4 0 0 Z " fill="#5D88B7" transform="translate(133,184)"/>
<path d="M0 0 C1.65 0 3.3 0 5 0 C5.33 1.32 5.66 2.64 6 4 C8.97 4.495 8.97 4.495 12 5 C12 5.33 12 5.66 12 6 C8.7 6.33 5.4 6.66 2 7 C0 3 0 3 0 0 Z " fill="#517BAF" transform="translate(166,193)"/>
<path d="M0 0 C0.66 0 1.32 0 2 0 C2 4.29 2 8.58 2 13 C1.01 13.33 0.02 13.66 -1 14 C-1.02694851 12.04174127 -1.04637218 10.08337774 -1.0625 8.125 C-1.07410156 7.03445312 -1.08570313 5.94390625 -1.09765625 4.8203125 C-1 2 -1 2 0 0 Z " fill="#0C4A95" transform="translate(131,182)"/>
<path d="M0 0 C1.65 0.33 3.3 0.66 5 1 C4.67 1.99 4.34 2.98 4 4 C3.34 4 2.68 4 2 4 C1.67 6.64 1.34 9.28 1 12 C0.01 12 -0.98 12 -2 12 C-2 11.34 -2 10.68 -2 10 C-2.99 9.67 -3.98 9.34 -5 9 C-3.68 8.67 -2.36 8.34 -1 8 C-0.67 5.36 -0.34 2.72 0 0 Z " fill="#6C91BC" transform="translate(107,144)"/>
<path d="M0 0 C2.31 0 4.62 0 7 0 C7 0.66 7 1.32 7 2 C5.68 2.33 4.36 2.66 3 3 C2.34 5.97 1.68 8.94 1 12 C0.01 12 -0.98 12 -2 12 C-2 11.34 -2 10.68 -2 10 C-2.66 9.67 -3.32 9.34 -4 9 C-3.01 9 -2.02 9 -1 9 C-0.67 6.03 -0.34 3.06 0 0 Z " fill="#648CB9" transform="translate(48,144)"/>
<path d="M0 0 C1.67542976 0.28604898 3.34385343 0.61781233 5 1 C2 3 2 3 -1.125 4.25 C-4.32208617 5.74549699 -4.32208617 5.74549699 -4.875 9.1875 C-4.91625 10.115625 -4.9575 11.04375 -5 12 C-5.33 11.34 -5.66 10.68 -6 10 C-6.66 9.67 -7.32 9.34 -8 9 C-7.34 9 -6.68 9 -6 9 C-6.33 7.02 -6.66 5.04 -7 3 C-5.5459375 2.5359375 -5.5459375 2.5359375 -4.0625 2.0625 C-1.15934208 1.30476658 -1.15934208 1.30476658 0 0 Z " fill="#044492" transform="translate(80,96)"/>
<path d="M0 0 C2 3 2 3 2 5 C3.1446875 4.9071875 3.1446875 4.9071875 4.3125 4.8125 C7 5 7 5 8.8125 6.5 C9.204375 6.995 9.59625 7.49 10 8 C7.01787087 9.49106457 4.28390342 9.11941467 1 9 C0 8 0 8 -0.09765625 6.15234375 C-0.06510417 4.1015625 -0.03255208 2.05078125 0 0 Z " fill="#6A8FBB" transform="translate(382,193)"/>
<path d="M0 0 C1.74627478 2.61941217 2.38722388 4.03824877 3 7 C3.66 7 4.32 7 5 7 C5 7.66 5 8.32 5 9 C3.68 8.67 2.36 8.34 1 8 C0.67 8.66 0.34 9.32 0 10 C-3 4.25 -3 4.25 -3 2 C-2.01 2 -1.02 2 0 2 C0 1.34 0 0.68 0 0 Z " fill="#4976AD" transform="translate(215,188)"/>
<path d="M0 0 C0.33 4.29 0.66 8.58 1 13 C0.01 13.495 0.01 13.495 -1 14 C-3.20914 10.68629 -3.22481553 9.6553979 -3.125 5.8125 C-3.10695313 4.91144531 -3.08890625 4.01039063 -3.0703125 3.08203125 C-3.04710938 2.39496094 -3.02390625 1.70789063 -3 1 C-1 0 -1 0 0 0 Z " fill="#034593" transform="translate(119,184)"/>
<path d="M0 0 C0.33 0.66 0.66 1.32 1 2 C0.02059602 4.34205301 -0.98034573 6.67518826 -2 9 C-2 9.99 -2 10.98 -2 12 C-2.3062434 13.33981486 -2.63451555 14.67511887 -3 16 C-5.64248705 11.86010363 -5.64248705 11.86010363 -6 9 C-4.45057995 5.63493652 -2.34765109 2.85210505 0 0 Z " fill="#4773AA" transform="translate(129,115)"/>
<path d="M0 0 C2.29013653 3.4352048 2.17842973 4.985331 2 9 C0.02 9.99 0.02 9.99 -2 11 C-2.66 9.68 -3.32 8.36 -4 7 C-3.01 6.34 -2.02 5.68 -1 5 C-0.27034634 2.43717258 -0.27034634 2.43717258 0 0 Z " fill="#6186B6" transform="translate(104,141)"/>
<path d="M0 0 C0.598125 0.350625 1.19625 0.70125 1.8125 1.0625 C1.1525 1.0625 0.4925 1.0625 -0.1875 1.0625 C-0.23648438 1.70058594 -0.28546875 2.33867188 -0.3359375 2.99609375 C-0.41070312 3.82238281 -0.48546875 4.64867187 -0.5625 5.5 C-0.63210937 6.32371094 -0.70171875 7.14742187 -0.7734375 7.99609375 C-0.91007812 8.67800781 -1.04671875 9.35992187 -1.1875 10.0625 C-2.1775 10.5575 -2.1775 10.5575 -3.1875 11.0625 C-3.1875 7.7625 -3.1875 4.4625 -3.1875 1.0625 C-3.8475 0.7325 -4.5075 0.4025 -5.1875 0.0625 C-2.1875 -0.9375 -2.1875 -0.9375 0 0 Z " fill="#4D7BAF" transform="translate(58.1875,51.9375)"/>
<path d="M0 0 C1.5625 1.1875 1.5625 1.1875 3 3 C2.6875 5.6875 2.6875 5.6875 2 8 C-0.97 7.67 -3.94 7.34 -7 7 C-4 5 -4 5 -1 4 C-0.26676204 1.98491642 -0.26676204 1.98491642 0 0 Z " fill="#4775AC" transform="translate(494,192)"/>
<path d="M0 0 C2.02558881 3.34939881 2.21738987 5.86962551 2.125 9.75 C2.10695313 10.73484375 2.08890625 11.7196875 2.0703125 12.734375 C2.04710938 13.48203125 2.02390625 14.2296875 2 15 C1.01 14.34 0.02 13.68 -1 13 C-1.328125 10.46875 -1.328125 10.46875 -1.25 7.5 C-1.23453125 6.5203125 -1.2190625 5.540625 -1.203125 4.53125 C-1 2 -1 2 0 0 Z " fill="#7499C0" transform="translate(125,77)"/>
<path d="M0 0 C0.66 0 1.32 0 2 0 C3.55577239 5.65735415 2.24281523 8.79666866 0 14 C-0.66 14 -1.32 14 -2 14 C-1.33333333 9.33333333 -0.66666667 4.66666667 0 0 Z " fill="#6187B5" transform="translate(48,55)"/>
<path d="M0 0 C0 0.66 0 1.32 0 2 C-3.81389558 3.79477439 -6.78645663 4.37453719 -11 4 C-11.66 3.34 -12.32 2.68 -13 2 C-11.39658445 1.66307215 -9.79223445 1.33058907 -8.1875 1 C-7.29417969 0.814375 -6.40085937 0.62875 -5.48046875 0.4375 C-3 0 -3 0 0 0 Z " fill="#5883B4" transform="translate(104,102)"/>
<path d="M0 0 C2 2 2 2 2.1953125 4.6015625 C2.17210937 5.59929687 2.14890625 6.59703125 2.125 7.625 C2.10695312 8.62789062 2.08890625 9.63078125 2.0703125 10.6640625 C2.03550781 11.82035156 2.03550781 11.82035156 2 13 C1.34 13 0.68 13 0 13 C-1.98384711 9.03230578 -1.32630565 4.14470514 0 0 Z " fill="#85A5C7" transform="translate(54,78)"/>
<path d="M0 0 C0.66 0 1.32 0 2 0 C2.33 4.29 2.66 8.58 3 13 C2.34 13 1.68 13 1 13 C0.1276588 10.00519083 -0.10829766 7.36424089 -0.0625 4.25 C-0.05347656 3.45078125 -0.04445313 2.6515625 -0.03515625 1.828125 C-0.02355469 1.22484375 -0.01195312 0.6215625 0 0 Z " fill="#0C4996" transform="translate(379,187)"/>
<path d="M0 0 C0.99 0 1.98 0 3 0 C3 3.63 3 7.26 3 11 C2.67 9.68 2.34 8.36 2 7 C1.01 7.33 0.02 7.66 -1 8 C-2.2077558 4.37673261 -1.54311128 3.35853631 0 0 Z " fill="#839EC3" transform="translate(113,144)"/>
<path d="M0 0 C1.1171875 1.703125 1.1171875 1.703125 2 4 C1.3203125 6.359375 1.3203125 6.359375 0.125 8.75 C-0.26429687 9.54921875 -0.65359375 10.3484375 -1.0546875 11.171875 C-1.36664063 11.77515625 -1.67859375 12.3784375 -2 13 C-2.66 13 -3.32 13 -4 13 C-3.40895235 8.15340923 -2.02055843 4.39251833 0 0 Z " fill="#698DBA" transform="translate(54,61)"/>
<path d="M0 0 C2.97 0 5.94 0 9 0 C9 3.63 9 7.26 9 11 C8.34 11 7.68 11 7 11 C7.020625 10.0925 7.04125 9.185 7.0625 8.25 C7.0110245 5.57327412 6.7784983 3.53011948 6 1 C4.02 1 2.04 1 0 1 C0 0.67 0 0.34 0 0 Z " fill="#003B8D" transform="translate(239,190)"/>
<path d="M0 0 C0.66 0 1.32 0 2 0 C2 1.98 2 3.96 2 6 C0.02 6.99 0.02 6.99 -2 8 C-2.66 7.01 -3.32 6.02 -4 5 C-2.68 4.34 -1.36 3.68 0 3 C0 2.01 0 1.02 0 0 Z " fill="#7595BC" transform="translate(77,144)"/>
<path d="M0 0 C3.375 -0.1875 3.375 -0.1875 7 0 C7.66 0.99 8.32 1.98 9 3 C7.35 2.67 5.7 2.34 4 2 C4 3.65 4 5.3 4 7 C3.34 7 2.68 7 2 7 C1.34 4.69 0.68 2.38 0 0 Z " fill="#87A2C4" transform="translate(92,142)"/>
<path d="M0 0 C0.66 0 1.32 0 2 0 C3.16894964 4.09132375 2.85351659 6.19541332 1 10 C0.62875 10.763125 0.2575 11.52625 -0.125 12.3125 C-0.41375 12.869375 -0.7025 13.42625 -1 14 C-1 13.01 -1 12.02 -1 11 C-1.66 10.67 -2.32 10.34 -3 10 C-2.505 9.0925 -2.01 8.185 -1.5 7.25 C0.27937212 3.99126962 0.27937212 3.99126962 0 0 Z " fill="#537DB1" transform="translate(104,101)"/>
<path d="M0 0 C0.66 0 1.32 0 2 0 C2 1.98 2 3.96 2 6 C0.35 6.33 -1.3 6.66 -3 7 C-2.38722388 4.03824877 -1.74627478 2.61941217 0 0 Z " fill="#678CB9" transform="translate(135,144)"/>
<path d="M0 0 C2.64 0.33 5.28 0.66 8 1 C8 1.66 8 2.32 8 3 C8.99 3.33 9.98 3.66 11 4 C10.34 5.32 9.68 6.64 9 8 C8.1646875 6.824375 8.1646875 6.824375 7.3125 5.625 C4.92331435 2.91295142 3.39926587 2.03866457 0 1 C0 0.67 0 0.34 0 0 Z " fill="#EFC817" transform="translate(286,73)"/>
<path d="M0 0 C0.66 0.33 1.32 0.66 2 1 C-1.49087093 5.0042343 -3.64951939 6.62671065 -9 7 C-6.25604436 4.05278838 -3.61662784 1.80831392 0 0 Z " fill="#4472AA" transform="translate(62,13)"/>
<path d="M0 0 C0.99 0 1.98 0 3 0 C3 0.99 3 1.98 3 3 C3.66 3 4.32 3 5 3 C5.625 5.875 5.625 5.875 6 9 C5.34 9.66 4.68 10.32 4 11 C2.68373308 7.38026598 2 4.90432869 2 1 C1.34 0.67 0.68 0.34 0 0 Z " fill="#7395BE" transform="translate(126,52)"/>
<path d="M0 0 C1.65 0 3.3 0 5 0 C4.67 1.32 4.34 2.64 4 4 C3.34 3.67 2.68 3.34 2 3 C1.67 3.99 1.34 4.98 1 6 C0.34 6 -0.32 6 -1 6 C-0.67 4.02 -0.34 2.04 0 0 Z " fill="#0B4694" transform="translate(334,180)"/>
<path d="M0 0 C0.66 0.33 1.32 0.66 2 1 C0.70519111 3.42776667 -0.35838519 4.76967674 -2.98046875 5.7109375 C-4.9738726 6.19782198 -6.98658625 6.60391861 -9 7 C-6.3765992 4.08511023 -3.28183606 2.11496102 0 0 Z " fill="#517DB0" transform="translate(24,37)"/>
<path d="M0 0 C0.99 0 1.98 0 3 0 C3.33 1.32 3.66 2.64 4 4 C0.7 4 -2.6 4 -6 4 C-6 3.67 -6 3.34 -6 3 C-4.35 3 -2.7 3 -1 3 C-0.67 2.01 -0.34 1.02 0 0 Z " fill="#295C9E" transform="translate(154,196)"/>
<path d="M0 0 C1.65 0 3.3 0 5 0 C5 0.66 5 1.32 5 2 C4.01 2.33 3.02 2.66 2 3 C2.33 4.98 2.66 6.96 3 9 C2.01 9 1.02 9 0 9 C0 6.03 0 3.06 0 0 Z " fill="#4573AB" transform="translate(129,144)"/>
<path d="M0 0 C0.66 0.66 1.32 1.32 2 2 C1.67028521 5.29714793 1.3773161 6.6226839 -1 9 C-1.66 8.67 -2.32 8.34 -3 8 C-1.125 2.25 -1.125 2.25 0 0 Z " fill="#7996BE" transform="translate(85,81)"/>
<path d="M0 0 C0.33 0 0.66 0 1 0 C1 1.98 1 3.96 1 6 C0.34 6 -0.32 6 -1 6 C-1 8.64 -1 11.28 -1 14 C-1.33 14 -1.66 14 -2 14 C-2.05437607 12.41705218 -2.09296271 10.83355744 -2.125 9.25 C-2.14820313 8.36828125 -2.17140625 7.4865625 -2.1953125 6.578125 C-1.99139502 3.8864142 -1.36551721 2.30095026 0 0 Z " fill="#7396C0" transform="translate(54,181)"/>
<path d="M0 0 C0.99 0.33 1.98 0.66 3 1 C3 2.65 3 4.3 3 6 C1.68 6 0.36 6 -1 6 C-0.67 4.02 -0.34 2.04 0 0 Z " fill="#547DB0" transform="translate(67,181)"/>
<path d="M0 0 C3.43752007 1.5277867 6.18953688 3.50181056 9 6 C9 6.66 9 7.32 9 8 C4.58848129 6.65203595 2.61191481 4.77276583 0 1 C0 0.67 0 0.34 0 0 Z " fill="#1F5596" transform="translate(258,147)"/>
<path d="M0 0 C0.66 0.66 1.32 1.32 2 2 C1.01 2.33 0.02 2.66 -1 3 C-1 2.34 -1 1.68 -1 1 C-1.7425 1.33 -2.485 1.66 -3.25 2 C-6 3 -6 3 -10 3 C-10 2.34 -10 1.68 -10 1 C-6.47940432 -0.17353189 -3.693507 -0.20146402 0 0 Z " fill="#336AA6" transform="translate(102,95)"/>
<path d="M0 0 C0.66 0 1.32 0 2 0 C2.33 0.99 2.66 1.98 3 3 C1.0625 5.6875 1.0625 5.6875 -1 8 C-1.625 5.6875 -1.625 5.6875 -2 3 C-1.34 2.01 -0.68 1.02 0 0 Z " fill="#4C7BB0" transform="translate(2,51)"/>
<path d="M0 0 C0.99 0.33 1.98 0.66 3 1 C3 3.97 3 6.94 3 10 C2.34 9.67 1.68 9.34 1 9 C0.5859375 6.93359375 0.5859375 6.93359375 0.375 4.4375 C0.30023438 3.61121094 0.22546875 2.78492188 0.1484375 1.93359375 C0.09945313 1.29550781 0.05046875 0.65742188 0 0 Z " fill="#00408F" transform="translate(495,184)"/>
<path d="M0 0 C0.33 0.66 0.66 1.32 1 2 C-0.6875 4.5 -0.6875 4.5 -3 7 C-5.75 7.3125 -5.75 7.3125 -8 7 C-7.236875 6.401875 -6.47375 5.80375 -5.6875 5.1875 C-3.6516425 3.53040668 -1.8021721 1.89702326 0 0 Z " fill="#E5C51D" transform="translate(295,149)"/>
<path d="M0 0 C0.99 0.99 1.98 1.98 3 3 C2.01 3.495 2.01 3.495 1 4 C1 5.65 1 7.3 1 9 C0.01 9 -0.98 9 -2 9 C-1.125 2.25 -1.125 2.25 0 0 Z " fill="#85A3C6" transform="translate(39,147)"/>
<path d="M0 0 C0.33 0 0.66 0 1 0 C1.66 3.63 2.32 7.26 3 11 C2.01 11.495 2.01 11.495 1 12 C-0.47075246 7.58774263 -1.36884358 4.51718381 0 0 Z " fill="#87A5C6" transform="translate(124,54)"/>
<path d="M0 0 C0.99 0.33 1.98 0.66 3 1 C3 2.65 3 4.3 3 6 C1.68 5.67 0.36 5.34 -1 5 C-0.67 3.35 -0.34 1.7 0 0 Z " fill="#2D5FA0" transform="translate(359,183)"/>
<path d="M0 0 C0.33 0 0.66 0 1 0 C1.25532751 3.06393013 1.21861333 4.63233212 -0.375 7.3125 C-1.179375 8.1478125 -1.179375 8.1478125 -2 9 C-2.66 9 -3.32 9 -4 9 C-2.80100302 5.9168649 -1.52299523 2.93720508 0 0 Z " fill="#2C62A2" transform="translate(108,102)"/>
<path d="M0 0 C0.33 0 0.66 0 1 0 C1.16947579 1.41633336 1.33545507 2.83308533 1.5 4.25 C1.5928125 5.03890625 1.685625 5.8278125 1.78125 6.640625 C2 9 2 9 2 13 C1.34 13 0.68 13 0 13 C0 8.71 0 4.42 0 0 Z " fill="#A1BAD4" transform="translate(42,76)"/>
<path d="M0 0 C0.66 0 1.32 0 2 0 C2.33 2.31 2.66 4.62 3 7 C2.01 7.33 1.02 7.66 0 8 C0 5.36 0 2.72 0 0 Z " fill="#4771AA" transform="translate(87,70)"/>
<path d="M0 0 C1.32 0 2.64 0 4 0 C3.34 1.98 2.68 3.96 2 6 C1.34 6 0.68 6 0 6 C0 4.02 0 2.04 0 0 Z " fill="#255C9D" transform="translate(167,182)"/>
<path d="M0 0 C1.65 0 3.3 0 5 0 C5 0.66 5 1.32 5 2 C4.01 2.33 3.02 2.66 2 3 C2 4.65 2 6.3 2 8 C1.34 7.67 0.68 7.34 0 7 C0 4.69 0 2.38 0 0 Z " fill="#527EB1" transform="translate(71,144)"/>
<path d="M0 0 C0.99 0.99 1.98 1.98 3 3 C2.75546876 6.34192692 2.39456443 7.60543557 0 10 C0 6.7 0 3.4 0 0 Z " fill="#5C81B1" transform="translate(54,120)"/>
<path d="M0 0 C0.33 0 0.66 0 1 0 C0.67 2.97 0.34 5.94 0 9 C-0.66 9 -1.32 9 -2 9 C-1.125 1.125 -1.125 1.125 0 0 Z " fill="#517EB1" transform="translate(57,71)"/>
<path d="M0 0 C0.99 0.33 1.98 0.66 3 1 C-0.465 3.97 -0.465 3.97 -4 7 C-3.04065919 3.16263678 -2.76390737 2.40339772 0 0 Z " fill="#507AAD" transform="translate(86,59)"/>
<path d="M0 0 C4.95 0 9.9 0 15 0 C15 0.33 15 0.66 15 1 C10.05 1 5.1 1 0 1 C0 0.67 0 0.34 0 0 Z " fill="#FDFCFC" transform="translate(130,201)"/>
<path d="M0 0 C4.62 0 9.24 0 14 0 C14 0.33 14 0.66 14 1 C9.38 1 4.76 1 0 1 C0 0.67 0 0.34 0 0 Z " fill="#FDFDFC" transform="translate(156,201)"/>
<path d="M0 0 C0.66 0 1.32 0 2 0 C2.33 0.99 2.66 1.98 3 3 C2.67 3.66 2.34 4.32 2 5 C1.01 4.67 0.02 4.34 -1 4 C-0.67 2.68 -0.34 1.36 0 0 Z " fill="#7C96BD" transform="translate(52,147)"/>
<path d="M0 0 C0.33 0 0.66 0 1 0 C1 2.31 1 4.62 1 7 C0.67 7 0.34 7 0 7 C0 4.69 0 2.38 0 0 Z " fill="#FDFCFA" transform="translate(499,195)"/>
<path d="M0 0 C4 1 4 1 4 1 Z " fill="#FDFDFC" transform="translate(494,201)"/>
<path d="M0 0 C0.66 0 1.32 0 2 0 C2 0.66 2 1.32 2 2 C1.34 2 0.68 2 0 2 C0 1.34 0 0.68 0 0 Z " fill="#F9F8F5" transform="translate(61,183)"/>
<path d="" fill="#FEFAF3" transform="translate(0,0)"/>
<path d="" fill="#F5F8F6" transform="translate(0,0)"/>
<path d="" fill="#FDFAF7" transform="translate(0,0)"/>
<path d="" fill="#F8FBFD" transform="translate(0,0)"/>
<path d="" fill="#FEFCFA" transform="translate(0,0)"/>
<path d="" fill="#F8FAF9" transform="translate(0,0)"/>
<path d="" fill="#F6FAF6" transform="translate(0,0)"/>
</svg>
